<?xml version="1.0" encoding="utf-8" standalone="no"?>
<!DOCTYPE svg PUBLIC "-//W3C//DTD SVG 1.1//EN"
  "http://www.w3.org/Graphics/SVG/1.1/DTD/svg11.dtd">
<svg xmlns:xlink="http://www.w3.org/1999/xlink" width="708.48pt" height="352.8825pt" viewBox="0 0 708.48 352.8825" xmlns="http://www.w3.org/2000/svg" version="1.1">
 <metadata>
  <rdf:RDF xmlns:dc="http://purl.org/dc/elements/1.1/" xmlns:cc="http://creativecommons.org/ns#" xmlns:rdf="http://www.w3.org/1999/02/22-rdf-syntax-ns#">
   <cc:Work>
    <dc:type rdf:resource="http://purl.org/dc/dcmitype/StillImage"/>
    <dc:date>2026-02-07T18:09:00.083431</dc:date>
    <dc:format>image/svg+xml</dc:format>
    <dc:creator>
     <cc:Agent>
      <dc:title>Matplotlib v3.10.8, https://matplotlib.org/</dc:title>
     </cc:Agent>
    </dc:creator>
   </cc:Work>
  </rdf:RDF>
 </metadata>
 <defs>
  <style type="text/css">*{stroke-linejoin: round; stroke-linecap: butt}</style>
 </defs>
 <g id="figure_1">
  <g id="patch_1">
   <path d="M 0 352.8825 
L 708.48 352.8825 
L 708.48 0 
L 0 0 
z
" style="fill: #ffffff"/>
  </g>
  <g id="axes_1">
   <g id="patch_2">
    <path d="M 50.93375 234.881875 
L 347.76 234.881875 
L 347.76 23.837812 
L 50.93375 23.837812 
z
" style="fill: #ffffff"/>
   </g>
   <g id="matplotlib.axis_1">
    <g id="xtick_1">
     <g id="line2d_1">
      <path d="M 64.425852 234.881875 
L 64.425852 23.837812 
" clip-path="url(#p1440264adc)" style="fill: none; stroke-dasharray: 1.85,0.8; stroke-dashoffset: 0; stroke: #808080; stroke-width: 0.5"/>
     </g>
     <g id="line2d_2">
      <defs>
       <path id="me0082ed2ea" d="M 0 0 
L 0 3.5 
" style="stroke: #000000; stroke-width: 0.8"/>
      </defs>
      <g>
       <use xlink:href="#me0082ed2ea" x="64.425852" y="234.881875" style="stroke: #000000; stroke-width: 0.8"/>
      </g>
     </g>
     <g id="text_1">
      <!-- 1 -->
      <g transform="translate(60.608352 251) scale(0.12 -0.12)">
       <defs>
        <path id="DejaVuSerif-31" d="M 909 0 
L 909 331 
L 1722 331 
L 1722 4213 
L 781 3603 
L 781 4013 
L 1919 4750 
L 2350 4750 
L 2350 331 
L 3163 331 
L 3163 0 
L 909 0 
z
" transform="scale(0.015625)"/>
       </defs>
       <use xlink:href="#DejaVuSerif-31"/>
      </g>
     </g>
    </g>
    <g id="xtick_2">
     <g id="line2d_3">
      <path d="M 131.886364 234.881875 
L 131.886364 23.837812 
" clip-path="url(#p1440264adc)" style="fill: none; stroke-dasharray: 1.85,0.8; stroke-dashoffset: 0; stroke: #808080; stroke-width: 0.5"/>
     </g>
     <g id="line2d_4">
      <g>
       <use xlink:href="#me0082ed2ea" x="131.886364" y="234.881875" style="stroke: #000000; stroke-width: 0.8"/>
      </g>
     </g>
     <g id="text_2">
      <!-- 2 -->
      <g transform="translate(128.068864 251) scale(0.12 -0.12)">
       <defs>
        <path id="DejaVuSerif-32" d="M 819 3553 
L 469 3553 
L 469 4384 
Q 803 4563 1142 4656 
Q 1481 4750 1806 4750 
Q 2534 4750 2956 4397 
Q 3378 4044 3378 3438 
Q 3378 2753 2422 1800 
Q 2347 1728 2309 1691 
L 1131 513 
L 3078 513 
L 3078 1088 
L 3444 1088 
L 3444 0 
L 434 0 
L 434 341 
L 1850 1753 
Q 2319 2222 2519 2614 
Q 2719 3006 2719 3438 
Q 2719 3909 2473 4175 
Q 2228 4441 1797 4441 
Q 1350 4441 1106 4219 
Q 863 3997 819 3553 
z
" transform="scale(0.015625)"/>
       </defs>
       <use xlink:href="#DejaVuSerif-32"/>
      </g>
     </g>
    </g>
    <g id="xtick_3">
     <g id="line2d_5">
      <path d="M 199.346875 234.881875 
L 199.346875 23.837812 
" clip-path="url(#p1440264adc)" style="fill: none; stroke-dasharray: 1.85,0.8; stroke-dashoffset: 0; stroke: #808080; stroke-width: 0.5"/>
     </g>
     <g id="line2d_6">
      <g>
       <use xlink:href="#me0082ed2ea" x="199.346875" y="234.881875" style="stroke: #000000; stroke-width: 0.8"/>
      </g>
     </g>
     <g id="text_3">
      <!-- 3 -->
      <g transform="translate(195.529375 251) scale(0.12 -0.12)">
       <defs>
        <path id="DejaVuSerif-33" d="M 622 4469 
Q 988 4606 1323 4678 
Q 1659 4750 1953 4750 
Q 2638 4750 3022 4454 
Q 3406 4159 3406 3634 
Q 3406 3213 3140 2930 
Q 2875 2647 2388 2547 
Q 2963 2466 3280 2130 
Q 3597 1794 3597 1259 
Q 3597 606 3158 257 
Q 2719 -91 1894 -91 
Q 1528 -91 1179 -12 
Q 831 66 488 225 
L 488 1131 
L 838 1131 
Q 869 681 1141 450 
Q 1413 219 1906 219 
Q 2384 219 2661 495 
Q 2938 772 2938 1253 
Q 2938 1803 2653 2086 
Q 2369 2369 1819 2369 
L 1522 2369 
L 1522 2688 
L 1678 2688 
Q 2225 2688 2498 2914 
Q 2772 3141 2772 3597 
Q 2772 4006 2547 4223 
Q 2322 4441 1900 4441 
Q 1478 4441 1245 4241 
Q 1013 4041 972 3647 
L 622 3647 
L 622 4469 
z
" transform="scale(0.015625)"/>
       </defs>
       <use xlink:href="#DejaVuSerif-33"/>
      </g>
     </g>
    </g>
    <g id="xtick_4">
     <g id="line2d_7">
      <path d="M 266.807386 234.881875 
L 266.807386 23.837812 
" clip-path="url(#p1440264adc)" style="fill: none; stroke-dasharray: 1.85,0.8; stroke-dashoffset: 0; stroke: #808080; stroke-width: 0.5"/>
     </g>
     <g id="line2d_8">
      <g>
       <use xlink:href="#me0082ed2ea" x="266.807386" y="234.881875" style="stroke: #000000; stroke-width: 0.8"/>
      </g>
     </g>
     <g id="text_4">
      <!-- 4 -->
      <g transform="translate(262.989886 251) scale(0.12 -0.12)">
       <defs>
        <path id="DejaVuSerif-34" d="M 2234 1581 
L 2234 4063 
L 641 1581 
L 2234 1581 
z
M 3609 0 
L 1484 0 
L 1484 331 
L 2234 331 
L 2234 1247 
L 197 1247 
L 197 1588 
L 2241 4750 
L 2859 4750 
L 2859 1581 
L 3750 1581 
L 3750 1247 
L 2859 1247 
L 2859 331 
L 3609 331 
L 3609 0 
z
" transform="scale(0.015625)"/>
       </defs>
       <use xlink:href="#DejaVuSerif-34"/>
      </g>
     </g>
    </g>
    <g id="xtick_5">
     <g id="line2d_9">
      <path d="M 334.267898 234.881875 
L 334.267898 23.837812 
" clip-path="url(#p1440264adc)" style="fill: none; stroke-dasharray: 1.85,0.8; stroke-dashoffset: 0; stroke: #808080; stroke-width: 0.5"/>
     </g>
     <g id="line2d_10">
      <g>
       <use xlink:href="#me0082ed2ea" x="334.267898" y="234.881875" style="stroke: #000000; stroke-width: 0.8"/>
      </g>
     </g>
     <g id="text_5">
      <!-- 5 -->
      <g transform="translate(330.450398 251) scale(0.12 -0.12)">
       <defs>
        <path id="DejaVuSerif-35" d="M 3219 4666 
L 3219 4153 
L 1081 4153 
L 1081 2816 
Q 1244 2928 1461 2984 
Q 1678 3041 1947 3041 
Q 2703 3041 3140 2622 
Q 3578 2203 3578 1478 
Q 3578 738 3136 323 
Q 2694 -91 1894 -91 
Q 1572 -91 1234 -12 
Q 897 66 544 225 
L 544 1131 
L 897 1131 
Q 925 688 1179 453 
Q 1434 219 1894 219 
Q 2388 219 2653 544 
Q 2919 869 2919 1478 
Q 2919 2084 2655 2407 
Q 2391 2731 1894 2731 
Q 1613 2731 1398 2631 
Q 1184 2531 1019 2322 
L 750 2322 
L 750 4666 
L 3219 4666 
z
" transform="scale(0.015625)"/>
       </defs>
       <use xlink:href="#DejaVuSerif-35"/>
      </g>
     </g>
    </g>
    <g id="text_6">
     <!-- polynomial degree -->
     <g transform="translate(142.8925 266.61375) scale(0.12 -0.12)">
      <defs>
       <path id="DejaVuSerif-70" d="M 1313 1825 
L 1313 1497 
Q 1313 897 1542 583 
Q 1772 269 2209 269 
Q 2650 269 2876 622 
Q 3103 975 3103 1663 
Q 3103 2353 2876 2703 
Q 2650 3053 2209 3053 
Q 1772 3053 1542 2737 
Q 1313 2422 1313 1825 
z
M 738 2988 
L 184 2988 
L 184 3322 
L 1313 3322 
L 1313 2803 
Q 1481 3116 1742 3264 
Q 2003 3413 2388 3413 
Q 3000 3413 3387 2928 
Q 3775 2444 3775 1663 
Q 3775 881 3387 395 
Q 3000 -91 2388 -91 
Q 2003 -91 1742 57 
Q 1481 206 1313 519 
L 1313 -997 
L 1856 -997 
L 1856 -1331 
L 184 -1331 
L 184 -997 
L 738 -997 
L 738 2988 
z
" transform="scale(0.015625)"/>
       <path id="DejaVuSerif-6f" d="M 1925 219 
Q 2388 219 2623 584 
Q 2859 950 2859 1663 
Q 2859 2375 2623 2739 
Q 2388 3103 1925 3103 
Q 1463 3103 1227 2739 
Q 991 2375 991 1663 
Q 991 950 1228 584 
Q 1466 219 1925 219 
z
M 1925 -91 
Q 1200 -91 759 389 
Q 319 869 319 1663 
Q 319 2456 758 2934 
Q 1197 3413 1925 3413 
Q 2653 3413 3092 2934 
Q 3531 2456 3531 1663 
Q 3531 869 3092 389 
Q 2653 -91 1925 -91 
z
" transform="scale(0.015625)"/>
       <path id="DejaVuSerif-6c" d="M 1313 331 
L 1856 331 
L 1856 0 
L 184 0 
L 184 331 
L 738 331 
L 738 4531 
L 184 4531 
L 184 4863 
L 1313 4863 
L 1313 331 
z
" transform="scale(0.015625)"/>
       <path id="DejaVuSerif-79" d="M 1381 -609 
L 1600 -56 
L 359 2988 
L -19 2988 
L -19 3322 
L 1509 3322 
L 1509 2988 
L 978 2988 
L 1913 703 
L 2847 2988 
L 2350 2988 
L 2350 3322 
L 3597 3322 
L 3597 2988 
L 3225 2988 
L 1703 -750 
Q 1547 -1138 1356 -1280 
Q 1166 -1422 819 -1422 
Q 672 -1422 517 -1397 
Q 363 -1372 206 -1325 
L 206 -691 
L 500 -691 
Q 519 -903 608 -995 
Q 697 -1088 884 -1088 
Q 1056 -1088 1161 -992 
Q 1266 -897 1381 -609 
z
" transform="scale(0.015625)"/>
       <path id="DejaVuSerif-6e" d="M 263 0 
L 263 331 
L 781 331 
L 781 2988 
L 231 2988 
L 231 3322 
L 1356 3322 
L 1356 2731 
Q 1516 3069 1770 3241 
Q 2025 3413 2363 3413 
Q 2913 3413 3172 3097 
Q 3431 2781 3431 2113 
L 3431 331 
L 3944 331 
L 3944 0 
L 2356 0 
L 2356 331 
L 2853 331 
L 2853 1931 
Q 2853 2541 2703 2767 
Q 2553 2994 2175 2994 
Q 1775 2994 1565 2701 
Q 1356 2409 1356 1850 
L 1356 331 
L 1856 331 
L 1856 0 
L 263 0 
z
" transform="scale(0.015625)"/>
       <path id="DejaVuSerif-6d" d="M 3316 2675 
Q 3481 3041 3739 3227 
Q 3997 3413 4341 3413 
Q 4863 3413 5119 3089 
Q 5375 2766 5375 2113 
L 5375 331 
L 5894 331 
L 5894 0 
L 4300 0 
L 4300 331 
L 4800 331 
L 4800 2047 
Q 4800 2556 4650 2772 
Q 4500 2988 4153 2988 
Q 3769 2988 3567 2697 
Q 3366 2406 3366 1850 
L 3366 331 
L 3866 331 
L 3866 0 
L 2291 0 
L 2291 331 
L 2791 331 
L 2791 2069 
Q 2791 2566 2641 2777 
Q 2491 2988 2144 2988 
Q 1759 2988 1557 2697 
Q 1356 2406 1356 1850 
L 1356 331 
L 1856 331 
L 1856 0 
L 263 0 
L 263 331 
L 781 331 
L 781 2994 
L 231 2994 
L 231 3322 
L 1356 3322 
L 1356 2731 
Q 1516 3063 1762 3238 
Q 2009 3413 2322 3413 
Q 2709 3413 2968 3220 
Q 3228 3028 3316 2675 
z
" transform="scale(0.015625)"/>
       <path id="DejaVuSerif-69" d="M 622 4353 
Q 622 4497 726 4603 
Q 831 4709 978 4709 
Q 1122 4709 1226 4603 
Q 1331 4497 1331 4353 
Q 1331 4206 1228 4103 
Q 1125 4000 978 4000 
Q 831 4000 726 4103 
Q 622 4206 622 4353 
z
M 1356 331 
L 1900 331 
L 1900 0 
L 231 0 
L 231 331 
L 781 331 
L 781 2988 
L 231 2988 
L 231 3322 
L 1356 3322 
L 1356 331 
z
" transform="scale(0.015625)"/>
       <path id="DejaVuSerif-61" d="M 2547 1044 
L 2547 1747 
L 1806 1747 
Q 1378 1747 1168 1562 
Q 959 1378 959 997 
Q 959 650 1171 447 
Q 1384 244 1747 244 
Q 2106 244 2326 466 
Q 2547 688 2547 1044 
z
M 3122 2075 
L 3122 331 
L 3634 331 
L 3634 0 
L 2547 0 
L 2547 359 
Q 2356 128 2106 18 
Q 1856 -91 1522 -91 
Q 969 -91 644 203 
Q 319 497 319 997 
Q 319 1513 691 1797 
Q 1063 2081 1741 2081 
L 2547 2081 
L 2547 2309 
Q 2547 2688 2317 2895 
Q 2088 3103 1672 3103 
Q 1328 3103 1125 2947 
Q 922 2791 872 2484 
L 575 2484 
L 575 3156 
Q 875 3284 1158 3348 
Q 1441 3413 1709 3413 
Q 2400 3413 2761 3070 
Q 3122 2728 3122 2075 
z
" transform="scale(0.015625)"/>
       <path id="DejaVuSerif-20" transform="scale(0.015625)"/>
       <path id="DejaVuSerif-64" d="M 3359 331 
L 3909 331 
L 3909 0 
L 2784 0 
L 2784 519 
Q 2616 206 2355 57 
Q 2094 -91 1709 -91 
Q 1097 -91 708 395 
Q 319 881 319 1663 
Q 319 2444 706 2928 
Q 1094 3413 1709 3413 
Q 2094 3413 2355 3264 
Q 2616 3116 2784 2803 
L 2784 4531 
L 2241 4531 
L 2241 4863 
L 3359 4863 
L 3359 331 
z
M 2784 1497 
L 2784 1825 
Q 2784 2422 2554 2737 
Q 2325 3053 1888 3053 
Q 1444 3053 1217 2703 
Q 991 2353 991 1663 
Q 991 975 1217 622 
Q 1444 269 1888 269 
Q 2325 269 2554 583 
Q 2784 897 2784 1497 
z
" transform="scale(0.015625)"/>
       <path id="DejaVuSerif-65" d="M 3469 1600 
L 991 1600 
L 991 1575 
Q 991 903 1244 561 
Q 1497 219 1991 219 
Q 2369 219 2611 417 
Q 2853 616 2950 1006 
L 3413 1006 
Q 3275 459 2904 184 
Q 2534 -91 1931 -91 
Q 1203 -91 761 389 
Q 319 869 319 1663 
Q 319 2450 753 2931 
Q 1188 3413 1894 3413 
Q 2647 3413 3050 2948 
Q 3453 2484 3469 1600 
z
M 2791 1931 
Q 2772 2513 2545 2808 
Q 2319 3103 1894 3103 
Q 1497 3103 1269 2806 
Q 1041 2509 991 1931 
L 2791 1931 
z
" transform="scale(0.015625)"/>
       <path id="DejaVuSerif-67" d="M 3359 2988 
L 3359 72 
Q 3359 -644 2965 -1033 
Q 2572 -1422 1844 -1422 
Q 1516 -1422 1216 -1362 
Q 916 -1303 641 -1184 
L 641 -488 
L 941 -488 
Q 997 -813 1206 -963 
Q 1416 -1113 1806 -1113 
Q 2313 -1113 2548 -827 
Q 2784 -541 2784 72 
L 2784 519 
Q 2616 206 2355 57 
Q 2094 -91 1709 -91 
Q 1097 -91 708 395 
Q 319 881 319 1663 
Q 319 2444 706 2928 
Q 1094 3413 1709 3413 
Q 2094 3413 2355 3264 
Q 2616 3116 2784 2803 
L 2784 3322 
L 3909 3322 
L 3909 2988 
L 3359 2988 
z
M 2784 1825 
Q 2784 2422 2554 2737 
Q 2325 3053 1888 3053 
Q 1444 3053 1217 2703 
Q 991 2353 991 1663 
Q 991 975 1217 622 
Q 1444 269 1888 269 
Q 2325 269 2554 583 
Q 2784 897 2784 1497 
L 2784 1825 
z
" transform="scale(0.015625)"/>
       <path id="DejaVuSerif-72" d="M 3059 3328 
L 3059 2497 
L 2728 2497 
Q 2713 2744 2591 2866 
Q 2469 2988 2234 2988 
Q 1809 2988 1582 2694 
Q 1356 2400 1356 1850 
L 1356 331 
L 2022 331 
L 2022 0 
L 263 0 
L 263 331 
L 781 331 
L 781 2994 
L 231 2994 
L 231 3322 
L 1356 3322 
L 1356 2731 
Q 1525 3078 1790 3245 
Q 2056 3413 2438 3413 
Q 2578 3413 2733 3391 
Q 2888 3369 3059 3328 
z
" transform="scale(0.015625)"/>
      </defs>
      <use xlink:href="#DejaVuSerif-70"/>
      <use xlink:href="#DejaVuSerif-6f" transform="translate(64.013672 0)"/>
      <use xlink:href="#DejaVuSerif-6c" transform="translate(124.21875 0)"/>
      <use xlink:href="#DejaVuSerif-79" transform="translate(156.201172 0)"/>
      <use xlink:href="#DejaVuSerif-6e" transform="translate(212.695312 0)"/>
      <use xlink:href="#DejaVuSerif-6f" transform="translate(277.099609 0)"/>
      <use xlink:href="#DejaVuSerif-6d" transform="translate(337.304688 0)"/>
      <use xlink:href="#DejaVuSerif-69" transform="translate(432.128906 0)"/>
      <use xlink:href="#DejaVuSerif-61" transform="translate(464.111328 0)"/>
      <use xlink:href="#DejaVuSerif-6c" transform="translate(523.730469 0)"/>
      <use xlink:href="#DejaVuSerif-20" transform="translate(555.712891 0)"/>
      <use xlink:href="#DejaVuSerif-64" transform="translate(587.5 0)"/>
      <use xlink:href="#DejaVuSerif-65" transform="translate(651.513672 0)"/>
      <use xlink:href="#DejaVuSerif-67" transform="translate(710.693359 0)"/>
      <use xlink:href="#DejaVuSerif-72" transform="translate(774.707031 0)"/>
      <use xlink:href="#DejaVuSerif-65" transform="translate(822.509766 0)"/>
      <use xlink:href="#DejaVuSerif-65" transform="translate(881.689453 0)"/>
     </g>
    </g>
   </g>
   <g id="matplotlib.axis_2">
    <g id="ytick_1">
     <g id="line2d_11">
      <path d="M 50.93375 225.067643 
L 347.76 225.067643 
" clip-path="url(#p1440264adc)" style="fill: none; stroke-dasharray: 1.85,0.8; stroke-dashoffset: 0; stroke: #808080; stroke-width: 0.5"/>
     </g>
     <g id="line2d_12">
      <defs>
       <path id="m7fe95203ce" d="M 0 0 
L -3.5 0 
" style="stroke: #000000; stroke-width: 0.8"/>
      </defs>
      <g>
       <use xlink:href="#m7fe95203ce" x="50.93375" y="225.067643" style="stroke: #000000; stroke-width: 0.8"/>
      </g>
     </g>
     <g id="text_7">
      <!-- $\mathdefault{10^{5}}$ -->
      <g transform="translate(22.81375 229.626706) scale(0.12 -0.12)">
       <defs>
        <path id="DejaVuSerif-30" d="M 2034 219 
Q 2513 219 2750 744 
Q 2988 1269 2988 2328 
Q 2988 3391 2750 3916 
Q 2513 4441 2034 4441 
Q 1556 4441 1318 3916 
Q 1081 3391 1081 2328 
Q 1081 1269 1318 744 
Q 1556 219 2034 219 
z
M 2034 -91 
Q 1275 -91 848 546 
Q 422 1184 422 2328 
Q 422 3475 848 4112 
Q 1275 4750 2034 4750 
Q 2797 4750 3222 4112 
Q 3647 3475 3647 2328 
Q 3647 1184 3222 546 
Q 2797 -91 2034 -91 
z
" transform="scale(0.015625)"/>
       </defs>
       <use xlink:href="#DejaVuSerif-31" transform="translate(0 0.63125)"/>
       <use xlink:href="#DejaVuSerif-30" transform="translate(63.623047 0.63125)"/>
       <use xlink:href="#DejaVuSerif-35" transform="translate(128.154453 36.965625) scale(0.7)"/>
      </g>
     </g>
    </g>
    <g id="ytick_2">
     <g id="line2d_13">
      <path d="M 50.93375 161.709945 
L 347.76 161.709945 
" clip-path="url(#p1440264adc)" style="fill: none; stroke-dasharray: 1.85,0.8; stroke-dashoffset: 0; stroke: #808080; stroke-width: 0.5"/>
     </g>
     <g id="line2d_14">
      <g>
       <use xlink:href="#m7fe95203ce" x="50.93375" y="161.709945" style="stroke: #000000; stroke-width: 0.8"/>
      </g>
     </g>
     <g id="text_8">
      <!-- $\mathdefault{10^{6}}$ -->
      <g transform="translate(22.81375 166.269008) scale(0.12 -0.12)">
       <defs>
        <path id="DejaVuSerif-36" d="M 2094 219 
Q 2534 219 2771 542 
Q 3009 866 3009 1472 
Q 3009 2078 2771 2401 
Q 2534 2725 2094 2725 
Q 1647 2725 1412 2412 
Q 1178 2100 1178 1509 
Q 1178 888 1415 553 
Q 1653 219 2094 219 
z
M 1075 2569 
Q 1288 2803 1556 2918 
Q 1825 3034 2163 3034 
Q 2859 3034 3264 2615 
Q 3669 2197 3669 1472 
Q 3669 763 3233 336 
Q 2797 -91 2069 -91 
Q 1278 -91 853 498 
Q 428 1088 428 2181 
Q 428 3406 931 4078 
Q 1434 4750 2350 4750 
Q 2597 4750 2869 4703 
Q 3141 4656 3425 4563 
L 3425 3794 
L 3072 3794 
Q 3034 4109 2831 4275 
Q 2628 4441 2284 4441 
Q 1678 4441 1381 3981 
Q 1084 3522 1075 2569 
z
" transform="scale(0.015625)"/>
       </defs>
       <use xlink:href="#DejaVuSerif-31" transform="translate(0 0.7125)"/>
       <use xlink:href="#DejaVuSerif-30" transform="translate(63.623047 0.7125)"/>
       <use xlink:href="#DejaVuSerif-36" transform="translate(128.154453 37.046875) scale(0.7)"/>
      </g>
     </g>
    </g>
    <g id="ytick_3">
     <g id="line2d_15">
      <path d="M 50.93375 98.352247 
L 347.76 98.352247 
" clip-path="url(#p1440264adc)" style="fill: none; stroke-dasharray: 1.85,0.8; stroke-dashoffset: 0; stroke: #808080; stroke-width: 0.5"/>
     </g>
     <g id="line2d_16">
      <g>
       <use xlink:href="#m7fe95203ce" x="50.93375" y="98.352247" style="stroke: #000000; stroke-width: 0.8"/>
      </g>
     </g>
     <g id="text_9">
      <!-- $\mathdefault{10^{7}}$ -->
      <g transform="translate(22.81375 102.91131) scale(0.12 -0.12)">
       <defs>
        <path id="DejaVuSerif-37" d="M 3609 4347 
L 1784 0 
L 1319 0 
L 3059 4153 
L 903 4153 
L 903 3578 
L 538 3578 
L 538 4666 
L 3609 4666 
L 3609 4347 
z
" transform="scale(0.015625)"/>
       </defs>
       <use xlink:href="#DejaVuSerif-31" transform="translate(0 0.63125)"/>
       <use xlink:href="#DejaVuSerif-30" transform="translate(63.623047 0.63125)"/>
       <use xlink:href="#DejaVuSerif-37" transform="translate(128.154453 36.965625) scale(0.7)"/>
      </g>
     </g>
    </g>
    <g id="ytick_4">
     <g id="line2d_17">
      <path d="M 50.93375 34.994549 
L 347.76 34.994549 
" clip-path="url(#p1440264adc)" style="fill: none; stroke-dasharray: 1.85,0.8; stroke-dashoffset: 0; stroke: #808080; stroke-width: 0.5"/>
     </g>
     <g id="line2d_18">
      <g>
       <use xlink:href="#m7fe95203ce" x="50.93375" y="34.994549" style="stroke: #000000; stroke-width: 0.8"/>
      </g>
     </g>
     <g id="text_10">
      <!-- $\mathdefault{10^{8}}$ -->
      <g transform="translate(22.81375 39.553612) scale(0.12 -0.12)">
       <defs>
        <path id="DejaVuSerif-38" d="M 2981 1275 
Q 2981 1775 2732 2051 
Q 2484 2328 2034 2328 
Q 1584 2328 1336 2051 
Q 1088 1775 1088 1275 
Q 1088 772 1336 495 
Q 1584 219 2034 219 
Q 2484 219 2732 495 
Q 2981 772 2981 1275 
z
M 2853 3541 
Q 2853 3966 2637 4203 
Q 2422 4441 2034 4441 
Q 1650 4441 1433 4203 
Q 1216 3966 1216 3541 
Q 1216 3113 1433 2875 
Q 1650 2638 2034 2638 
Q 2422 2638 2637 2875 
Q 2853 3113 2853 3541 
z
M 2516 2484 
Q 3047 2413 3344 2092 
Q 3641 1772 3641 1275 
Q 3641 619 3225 264 
Q 2809 -91 2034 -91 
Q 1263 -91 845 264 
Q 428 619 428 1275 
Q 428 1772 725 2092 
Q 1022 2413 1556 2484 
Q 1084 2569 832 2842 
Q 581 3116 581 3541 
Q 581 4103 968 4426 
Q 1356 4750 2034 4750 
Q 2713 4750 3100 4426 
Q 3488 4103 3488 3541 
Q 3488 3116 3236 2842 
Q 2984 2569 2516 2484 
z
" transform="scale(0.015625)"/>
       </defs>
       <use xlink:href="#DejaVuSerif-31" transform="translate(0 0.7125)"/>
       <use xlink:href="#DejaVuSerif-30" transform="translate(63.623047 0.7125)"/>
       <use xlink:href="#DejaVuSerif-38" transform="translate(128.154453 37.046875) scale(0.7)"/>
      </g>
     </g>
    </g>
    <g id="ytick_5">
     <g id="line2d_19">
      <defs>
       <path id="ma9802d4e8c" d="M 0 0 
L -2 0 
" style="stroke: #000000; stroke-width: 0.6"/>
      </defs>
      <g>
       <use xlink:href="#ma9802d4e8c" x="50.93375" y="234.881875" style="stroke: #000000; stroke-width: 0.6"/>
      </g>
     </g>
    </g>
    <g id="ytick_6">
     <g id="line2d_20">
      <g>
       <use xlink:href="#ma9802d4e8c" x="50.93375" y="231.207639" style="stroke: #000000; stroke-width: 0.6"/>
      </g>
     </g>
    </g>
    <g id="ytick_7">
     <g id="line2d_21">
      <g>
       <use xlink:href="#ma9802d4e8c" x="50.93375" y="227.966733" style="stroke: #000000; stroke-width: 0.6"/>
      </g>
     </g>
    </g>
    <g id="ytick_8">
     <g id="line2d_22">
      <g>
       <use xlink:href="#ma9802d4e8c" x="50.93375" y="205.995076" style="stroke: #000000; stroke-width: 0.6"/>
      </g>
     </g>
    </g>
    <g id="ytick_9">
     <g id="line2d_23">
      <g>
       <use xlink:href="#ma9802d4e8c" x="50.93375" y="194.838339" style="stroke: #000000; stroke-width: 0.6"/>
      </g>
     </g>
    </g>
    <g id="ytick_10">
     <g id="line2d_24">
      <g>
       <use xlink:href="#ma9802d4e8c" x="50.93375" y="186.922508" style="stroke: #000000; stroke-width: 0.6"/>
      </g>
     </g>
    </g>
    <g id="ytick_11">
     <g id="line2d_25">
      <g>
       <use xlink:href="#ma9802d4e8c" x="50.93375" y="180.782513" style="stroke: #000000; stroke-width: 0.6"/>
      </g>
     </g>
    </g>
    <g id="ytick_12">
     <g id="line2d_26">
      <g>
       <use xlink:href="#ma9802d4e8c" x="50.93375" y="175.765771" style="stroke: #000000; stroke-width: 0.6"/>
      </g>
     </g>
    </g>
    <g id="ytick_13">
     <g id="line2d_27">
      <g>
       <use xlink:href="#ma9802d4e8c" x="50.93375" y="171.524177" style="stroke: #000000; stroke-width: 0.6"/>
      </g>
     </g>
    </g>
    <g id="ytick_14">
     <g id="line2d_28">
      <g>
       <use xlink:href="#ma9802d4e8c" x="50.93375" y="167.849941" style="stroke: #000000; stroke-width: 0.6"/>
      </g>
     </g>
    </g>
    <g id="ytick_15">
     <g id="line2d_29">
      <g>
       <use xlink:href="#ma9802d4e8c" x="50.93375" y="164.609035" style="stroke: #000000; stroke-width: 0.6"/>
      </g>
     </g>
    </g>
    <g id="ytick_16">
     <g id="line2d_30">
      <g>
       <use xlink:href="#ma9802d4e8c" x="50.93375" y="142.637378" style="stroke: #000000; stroke-width: 0.6"/>
      </g>
     </g>
    </g>
    <g id="ytick_17">
     <g id="line2d_31">
      <g>
       <use xlink:href="#ma9802d4e8c" x="50.93375" y="131.480641" style="stroke: #000000; stroke-width: 0.6"/>
      </g>
     </g>
    </g>
    <g id="ytick_18">
     <g id="line2d_32">
      <g>
       <use xlink:href="#ma9802d4e8c" x="50.93375" y="123.56481" style="stroke: #000000; stroke-width: 0.6"/>
      </g>
     </g>
    </g>
    <g id="ytick_19">
     <g id="line2d_33">
      <g>
       <use xlink:href="#ma9802d4e8c" x="50.93375" y="117.424815" style="stroke: #000000; stroke-width: 0.6"/>
      </g>
     </g>
    </g>
    <g id="ytick_20">
     <g id="line2d_34">
      <g>
       <use xlink:href="#ma9802d4e8c" x="50.93375" y="112.408073" style="stroke: #000000; stroke-width: 0.6"/>
      </g>
     </g>
    </g>
    <g id="ytick_21">
     <g id="line2d_35">
      <g>
       <use xlink:href="#ma9802d4e8c" x="50.93375" y="108.166479" style="stroke: #000000; stroke-width: 0.6"/>
      </g>
     </g>
    </g>
    <g id="ytick_22">
     <g id="line2d_36">
      <g>
       <use xlink:href="#ma9802d4e8c" x="50.93375" y="104.492243" style="stroke: #000000; stroke-width: 0.6"/>
      </g>
     </g>
    </g>
    <g id="ytick_23">
     <g id="line2d_37">
      <g>
       <use xlink:href="#ma9802d4e8c" x="50.93375" y="101.251337" style="stroke: #000000; stroke-width: 0.6"/>
      </g>
     </g>
    </g>
    <g id="ytick_24">
     <g id="line2d_38">
      <g>
       <use xlink:href="#ma9802d4e8c" x="50.93375" y="79.27968" style="stroke: #000000; stroke-width: 0.6"/>
      </g>
     </g>
    </g>
    <g id="ytick_25">
     <g id="line2d_39">
      <g>
       <use xlink:href="#ma9802d4e8c" x="50.93375" y="68.122943" style="stroke: #000000; stroke-width: 0.6"/>
      </g>
     </g>
    </g>
    <g id="ytick_26">
     <g id="line2d_40">
      <g>
       <use xlink:href="#ma9802d4e8c" x="50.93375" y="60.207112" style="stroke: #000000; stroke-width: 0.6"/>
      </g>
     </g>
    </g>
    <g id="ytick_27">
     <g id="line2d_41">
      <g>
       <use xlink:href="#ma9802d4e8c" x="50.93375" y="54.067117" style="stroke: #000000; stroke-width: 0.6"/>
      </g>
     </g>
    </g>
    <g id="ytick_28">
     <g id="line2d_42">
      <g>
       <use xlink:href="#ma9802d4e8c" x="50.93375" y="49.050375" style="stroke: #000000; stroke-width: 0.6"/>
      </g>
     </g>
    </g>
    <g id="ytick_29">
     <g id="line2d_43">
      <g>
       <use xlink:href="#ma9802d4e8c" x="50.93375" y="44.808781" style="stroke: #000000; stroke-width: 0.6"/>
      </g>
     </g>
    </g>
    <g id="ytick_30">
     <g id="line2d_44">
      <g>
       <use xlink:href="#ma9802d4e8c" x="50.93375" y="41.134545" style="stroke: #000000; stroke-width: 0.6"/>
      </g>
     </g>
    </g>
    <g id="ytick_31">
     <g id="line2d_45">
      <g>
       <use xlink:href="#ma9802d4e8c" x="50.93375" y="37.893639" style="stroke: #000000; stroke-width: 0.6"/>
      </g>
     </g>
    </g>
    <g id="text_11">
     <!-- DoF/s -->
     <g transform="translate(16.318125 147.045781) rotate(-90) scale(0.12 -0.12)">
      <defs>
       <path id="DejaVuSerif-44" d="M 1581 331 
L 2163 331 
Q 3072 331 3558 850 
Q 4044 1369 4044 2338 
Q 4044 3306 3559 3818 
Q 3075 4331 2163 4331 
L 1581 4331 
L 1581 331 
z
M 353 0 
L 353 331 
L 947 331 
L 947 4331 
L 353 4331 
L 353 4666 
L 2209 4666 
Q 3416 4666 4089 4050 
Q 4763 3434 4763 2338 
Q 4763 1238 4088 619 
Q 3413 0 2209 0 
L 353 0 
z
" transform="scale(0.015625)"/>
       <path id="DejaVuSerif-46" d="M 353 0 
L 353 331 
L 947 331 
L 947 4331 
L 353 4331 
L 353 4666 
L 4172 4666 
L 4172 3628 
L 3788 3628 
L 3788 4281 
L 1581 4281 
L 1581 2719 
L 3175 2719 
L 3175 3303 
L 3559 3303 
L 3559 1753 
L 3175 1753 
L 3175 2338 
L 1581 2338 
L 1581 331 
L 2328 331 
L 2328 0 
L 353 0 
z
" transform="scale(0.015625)"/>
       <path id="DejaVuSerif-2f" d="M 1656 4666 
L 2156 4666 
L 500 -594 
L 0 -594 
L 1656 4666 
z
" transform="scale(0.015625)"/>
       <path id="DejaVuSerif-73" d="M 359 184 
L 359 959 
L 691 959 
Q 703 588 923 403 
Q 1144 219 1575 219 
Q 1963 219 2166 364 
Q 2369 509 2369 788 
Q 2369 1006 2220 1140 
Q 2072 1275 1594 1428 
L 1178 1569 
Q 750 1706 558 1912 
Q 366 2119 366 2438 
Q 366 2894 700 3153 
Q 1034 3413 1625 3413 
Q 1888 3413 2178 3344 
Q 2469 3275 2778 3144 
L 2778 2419 
L 2447 2419 
Q 2434 2741 2221 2922 
Q 2009 3103 1644 3103 
Q 1281 3103 1095 2975 
Q 909 2847 909 2591 
Q 909 2381 1050 2254 
Q 1191 2128 1613 1997 
L 2069 1856 
Q 2541 1709 2748 1489 
Q 2956 1269 2956 922 
Q 2956 450 2595 179 
Q 2234 -91 1600 -91 
Q 1278 -91 972 -22 
Q 666 47 359 184 
z
" transform="scale(0.015625)"/>
      </defs>
      <use xlink:href="#DejaVuSerif-44"/>
      <use xlink:href="#DejaVuSerif-6f" transform="translate(80.175781 0)"/>
      <use xlink:href="#DejaVuSerif-46" transform="translate(140.380859 0)"/>
      <use xlink:href="#DejaVuSerif-2f" transform="translate(209.765625 0)"/>
      <use xlink:href="#DejaVuSerif-73" transform="translate(243.457031 0)"/>
     </g>
    </g>
   </g>
   <g id="patch_3">
    <path d="M 50.93375 234.881875 
L 50.93375 23.837812 
" style="fill: none; stroke: #000000; stroke-width: 0.8; stroke-linejoin: miter; stroke-linecap: square"/>
   </g>
   <g id="patch_4">
    <path d="M 347.76 234.881875 
L 347.76 23.837812 
" style="fill: none; stroke: #000000; stroke-width: 0.8; stroke-linejoin: miter; stroke-linecap: square"/>
   </g>
   <g id="patch_5">
    <path d="M 50.93375 234.881875 
L 347.76 234.881875 
" style="fill: none; stroke: #000000; stroke-width: 0.8; stroke-linejoin: miter; stroke-linecap: square"/>
   </g>
   <g id="patch_6">
    <path d="M 50.93375 23.837812 
L 347.76 23.837812 
" style="fill: none; stroke: #000000; stroke-width: 0.8; stroke-linejoin: miter; stroke-linecap: square"/>
   </g>
   <g id="text_12">
    <!-- 2D -->
    <g transform="translate(189.281094 17.837812) scale(0.14 -0.14)">
     <use xlink:href="#DejaVuSerif-32"/>
     <use xlink:href="#DejaVuSerif-44" transform="translate(63.623047 0)"/>
    </g>
   </g>
   <g id="line2d_46">
    <path d="M 64.425852 67.509716 
" clip-path="url(#p1440264adc)" style="fill: none; stroke-dasharray: 4.44,1.92; stroke-dashoffset: 0; stroke: #e377c2; stroke-width: 1.2"/>
    <defs>
     <path id="me0c309f6e5" d="M 0 3 
C 0.795609 3 1.55874 2.683901 2.12132 2.12132 
C 2.683901 1.55874 3 0.795609 3 0 
C 3 -0.795609 2.683901 -1.55874 2.12132 -2.12132 
C 1.55874 -2.683901 0.795609 -3 0 -3 
C -0.795609 -3 -1.55874 -2.683901 -2.12132 -2.12132 
C -2.683901 -1.55874 -3 -0.795609 -3 0 
C -3 0.795609 -2.683901 1.55874 -2.12132 2.12132 
C -1.55874 2.683901 -0.795609 3 0 3 
z
" style="stroke: #e377c2"/>
    </defs>
    <g clip-path="url(#p1440264adc)">
     <use xlink:href="#me0c309f6e5" x="64.425852" y="67.509716" style="fill: #e377c2; stroke: #e377c2"/>
    </g>
   </g>
   <g id="line2d_47">
    <path d="M 64.425852 79.812034 
" clip-path="url(#p1440264adc)" style="fill: none; stroke-dasharray: 4.44,1.92; stroke-dashoffset: 0; stroke: #7f7f7f; stroke-width: 1.2"/>
    <defs>
     <path id="m91c7303c7b" d="M 0 3 
C 0.795609 3 1.55874 2.683901 2.12132 2.12132 
C 2.683901 1.55874 3 0.795609 3 0 
C 3 -0.795609 2.683901 -1.55874 2.12132 -2.12132 
C 1.55874 -2.683901 0.795609 -3 0 -3 
C -0.795609 -3 -1.55874 -2.683901 -2.12132 -2.12132 
C -2.683901 -1.55874 -3 -0.795609 -3 0 
C -3 0.795609 -2.683901 1.55874 -2.12132 2.12132 
C -1.55874 2.683901 -0.795609 3 0 3 
z
" style="stroke: #7f7f7f"/>
    </defs>
    <g clip-path="url(#p1440264adc)">
     <use xlink:href="#m91c7303c7b" x="64.425852" y="79.812034" style="fill: #7f7f7f; stroke: #7f7f7f"/>
    </g>
   </g>
   <g id="line2d_48">
    <path d="M 64.425852 71.470848 
" clip-path="url(#p1440264adc)" style="fill: none; stroke-dasharray: 4.44,1.92; stroke-dashoffset: 0; stroke: #bcbd22; stroke-width: 1.2"/>
    <defs>
     <path id="m4b5a913544" d="M 0 3 
C 0.795609 3 1.55874 2.683901 2.12132 2.12132 
C 2.683901 1.55874 3 0.795609 3 0 
C 3 -0.795609 2.683901 -1.55874 2.12132 -2.12132 
C 1.55874 -2.683901 0.795609 -3 0 -3 
C -0.795609 -3 -1.55874 -2.683901 -2.12132 -2.12132 
C -2.683901 -1.55874 -3 -0.795609 -3 0 
C -3 0.795609 -2.683901 1.55874 -2.12132 2.12132 
C -1.55874 2.683901 -0.795609 3 0 3 
z
" style="stroke: #bcbd22"/>
    </defs>
    <g clip-path="url(#p1440264adc)">
     <use xlink:href="#m4b5a913544" x="64.425852" y="71.470848" style="fill: #bcbd22; stroke: #bcbd22"/>
    </g>
   </g>
   <g id="line2d_49">
    <path d="M 64.425852 68.060325 
L 131.886364 81.026888 
L 199.346875 99.851154 
L 266.807386 112.439864 
L 334.267898 116.051671 
" clip-path="url(#p1440264adc)" style="fill: none; stroke-dasharray: 4.44,1.92; stroke-dashoffset: 0; stroke: #17becf; stroke-width: 1.2"/>
    <defs>
     <path id="m4a9de9259d" d="M 0 3 
C 0.795609 3 1.55874 2.683901 2.12132 2.12132 
C 2.683901 1.55874 3 0.795609 3 0 
C 3 -0.795609 2.683901 -1.55874 2.12132 -2.12132 
C 1.55874 -2.683901 0.795609 -3 0 -3 
C -0.795609 -3 -1.55874 -2.683901 -2.12132 -2.12132 
C -2.683901 -1.55874 -3 -0.795609 -3 0 
C -3 0.795609 -2.683901 1.55874 -2.12132 2.12132 
C -1.55874 2.683901 -0.795609 3 0 3 
z
" style="stroke: #17becf"/>
    </defs>
    <g clip-path="url(#p1440264adc)">
     <use xlink:href="#m4a9de9259d" x="64.425852" y="68.060325" style="fill: #17becf; stroke: #17becf"/>
     <use xlink:href="#m4a9de9259d" x="131.886364" y="81.026888" style="fill: #17becf; stroke: #17becf"/>
     <use xlink:href="#m4a9de9259d" x="199.346875" y="99.851154" style="fill: #17becf; stroke: #17becf"/>
     <use xlink:href="#m4a9de9259d" x="266.807386" y="112.439864" style="fill: #17becf; stroke: #17becf"/>
     <use xlink:href="#m4a9de9259d" x="334.267898" y="116.051671" style="fill: #17becf; stroke: #17becf"/>
    </g>
   </g>
   <g id="line2d_50">
    <path d="M 64.425852 58.67886 
" clip-path="url(#p1440264adc)" style="fill: none; stroke: #e377c2; stroke-width: 1.2; stroke-linecap: square"/>
    <g clip-path="url(#p1440264adc)">
     <use xlink:href="#me0c309f6e5" x="64.425852" y="58.67886" style="fill: #e377c2; stroke: #e377c2"/>
    </g>
   </g>
   <g id="line2d_51">
    <path d="M 64.425852 67.281669 
" clip-path="url(#p1440264adc)" style="fill: none; stroke: #7f7f7f; stroke-width: 1.2; stroke-linecap: square"/>
    <g clip-path="url(#p1440264adc)">
     <use xlink:href="#m91c7303c7b" x="64.425852" y="67.281669" style="fill: #7f7f7f; stroke: #7f7f7f"/>
    </g>
   </g>
   <g id="line2d_52">
    <path d="M 64.425852 60.621382 
" clip-path="url(#p1440264adc)" style="fill: none; stroke: #bcbd22; stroke-width: 1.2; stroke-linecap: square"/>
    <g clip-path="url(#p1440264adc)">
     <use xlink:href="#m4b5a913544" x="64.425852" y="60.621382" style="fill: #bcbd22; stroke: #bcbd22"/>
    </g>
   </g>
   <g id="line2d_53">
    <path d="M 64.425852 57.161951 
L 131.886364 70.675632 
L 199.346875 89.260229 
L 266.807386 101.999254 
L 334.267898 105.456593 
" clip-path="url(#p1440264adc)" style="fill: none; stroke: #17becf; stroke-width: 1.2; stroke-linecap: square"/>
    <g clip-path="url(#p1440264adc)">
     <use xlink:href="#m4a9de9259d" x="64.425852" y="57.161951" style="fill: #17becf; stroke: #17becf"/>
     <use xlink:href="#m4a9de9259d" x="131.886364" y="70.675632" style="fill: #17becf; stroke: #17becf"/>
     <use xlink:href="#m4a9de9259d" x="199.346875" y="89.260229" style="fill: #17becf; stroke: #17becf"/>
     <use xlink:href="#m4a9de9259d" x="266.807386" y="101.999254" style="fill: #17becf; stroke: #17becf"/>
     <use xlink:href="#m4a9de9259d" x="334.267898" y="105.456593" style="fill: #17becf; stroke: #17becf"/>
    </g>
   </g>
   <g id="line2d_54">
    <path d="M 64.425852 49.29584 
L 131.886364 66.083652 
L 199.346875 78.856062 
L 266.807386 86.269586 
L 334.267898 97.946094 
" clip-path="url(#p1440264adc)" style="fill: none; stroke: #2ca02c; stroke-width: 1.2; stroke-linecap: square"/>
    <defs>
     <path id="m1b86378f0d" d="M 0 3 
C 0.795609 3 1.55874 2.683901 2.12132 2.12132 
C 2.683901 1.55874 3 0.795609 3 0 
C 3 -0.795609 2.683901 -1.55874 2.12132 -2.12132 
C 1.55874 -2.683901 0.795609 -3 0 -3 
C -0.795609 -3 -1.55874 -2.683901 -2.12132 -2.12132 
C -2.683901 -1.55874 -3 -0.795609 -3 0 
C -3 0.795609 -2.683901 1.55874 -2.12132 2.12132 
C -1.55874 2.683901 -0.795609 3 0 3 
z
" style="stroke: #2ca02c"/>
    </defs>
    <g clip-path="url(#p1440264adc)">
     <use xlink:href="#m1b86378f0d" x="64.425852" y="49.29584" style="fill: #2ca02c; stroke: #2ca02c"/>
     <use xlink:href="#m1b86378f0d" x="131.886364" y="66.083652" style="fill: #2ca02c; stroke: #2ca02c"/>
     <use xlink:href="#m1b86378f0d" x="199.346875" y="78.856062" style="fill: #2ca02c; stroke: #2ca02c"/>
     <use xlink:href="#m1b86378f0d" x="266.807386" y="86.269586" style="fill: #2ca02c; stroke: #2ca02c"/>
     <use xlink:href="#m1b86378f0d" x="334.267898" y="97.946094" style="fill: #2ca02c; stroke: #2ca02c"/>
    </g>
   </g>
   <g id="line2d_55">
    <path d="M 64.425852 60.022599 
L 131.886364 80.215202 
L 199.346875 93.173333 
L 266.807386 102.740305 
L 334.267898 110.793007 
" clip-path="url(#p1440264adc)" style="fill: none; stroke: #ff7f0e; stroke-width: 1.2; stroke-linecap: square"/>
    <defs>
     <path id="m9a802500ee" d="M 0 3 
C 0.795609 3 1.55874 2.683901 2.12132 2.12132 
C 2.683901 1.55874 3 0.795609 3 0 
C 3 -0.795609 2.683901 -1.55874 2.12132 -2.12132 
C 1.55874 -2.683901 0.795609 -3 0 -3 
C -0.795609 -3 -1.55874 -2.683901 -2.12132 -2.12132 
C -2.683901 -1.55874 -3 -0.795609 -3 0 
C -3 0.795609 -2.683901 1.55874 -2.12132 2.12132 
C -1.55874 2.683901 -0.795609 3 0 3 
z
" style="stroke: #ff7f0e"/>
    </defs>
    <g clip-path="url(#p1440264adc)">
     <use xlink:href="#m9a802500ee" x="64.425852" y="60.022599" style="fill: #ff7f0e; stroke: #ff7f0e"/>
     <use xlink:href="#m9a802500ee" x="131.886364" y="80.215202" style="fill: #ff7f0e; stroke: #ff7f0e"/>
     <use xlink:href="#m9a802500ee" x="199.346875" y="93.173333" style="fill: #ff7f0e; stroke: #ff7f0e"/>
     <use xlink:href="#m9a802500ee" x="266.807386" y="102.740305" style="fill: #ff7f0e; stroke: #ff7f0e"/>
     <use xlink:href="#m9a802500ee" x="334.267898" y="110.793007" style="fill: #ff7f0e; stroke: #ff7f0e"/>
    </g>
   </g>
  </g>
  <g id="axes_2">
   <g id="patch_7">
    <path d="M 404.45375 234.881875 
L 701.28 234.881875 
L 701.28 23.837812 
L 404.45375 23.837812 
z
" style="fill: #ffffff"/>
   </g>
   <g id="matplotlib.axis_3">
    <g id="xtick_6">
     <g id="line2d_56">
      <path d="M 417.945852 234.881875 
L 417.945852 23.837812 
" clip-path="url(#p0661841d75)" style="fill: none; stroke-dasharray: 1.85,0.8; stroke-dashoffset: 0; stroke: #808080; stroke-width: 0.5"/>
     </g>
     <g id="line2d_57">
      <g>
       <use xlink:href="#me0082ed2ea" x="417.945852" y="234.881875" style="stroke: #000000; stroke-width: 0.8"/>
      </g>
     </g>
     <g id="text_13">
      <!-- 1 -->
      <g transform="translate(414.128352 251) scale(0.12 -0.12)">
       <use xlink:href="#DejaVuSerif-31"/>
      </g>
     </g>
    </g>
    <g id="xtick_7">
     <g id="line2d_58">
      <path d="M 485.406364 234.881875 
L 485.406364 23.837812 
" clip-path="url(#p0661841d75)" style="fill: none; stroke-dasharray: 1.85,0.8; stroke-dashoffset: 0; stroke: #808080; stroke-width: 0.5"/>
     </g>
     <g id="line2d_59">
      <g>
       <use xlink:href="#me0082ed2ea" x="485.406364" y="234.881875" style="stroke: #000000; stroke-width: 0.8"/>
      </g>
     </g>
     <g id="text_14">
      <!-- 2 -->
      <g transform="translate(481.588864 251) scale(0.12 -0.12)">
       <use xlink:href="#DejaVuSerif-32"/>
      </g>
     </g>
    </g>
    <g id="xtick_8">
     <g id="line2d_60">
      <path d="M 552.866875 234.881875 
L 552.866875 23.837812 
" clip-path="url(#p0661841d75)" style="fill: none; stroke-dasharray: 1.85,0.8; stroke-dashoffset: 0; stroke: #808080; stroke-width: 0.5"/>
     </g>
     <g id="line2d_61">
      <g>
       <use xlink:href="#me0082ed2ea" x="552.866875" y="234.881875" style="stroke: #000000; stroke-width: 0.8"/>
      </g>
     </g>
     <g id="text_15">
      <!-- 3 -->
      <g transform="translate(549.049375 251) scale(0.12 -0.12)">
       <use xlink:href="#DejaVuSerif-33"/>
      </g>
     </g>
    </g>
    <g id="xtick_9">
     <g id="line2d_62">
      <path d="M 620.327386 234.881875 
L 620.327386 23.837812 
" clip-path="url(#p0661841d75)" style="fill: none; stroke-dasharray: 1.85,0.8; stroke-dashoffset: 0; stroke: #808080; stroke-width: 0.5"/>
     </g>
     <g id="line2d_63">
      <g>
       <use xlink:href="#me0082ed2ea" x="620.327386" y="234.881875" style="stroke: #000000; stroke-width: 0.8"/>
      </g>
     </g>
     <g id="text_16">
      <!-- 4 -->
      <g transform="translate(616.509886 251) scale(0.12 -0.12)">
       <use xlink:href="#DejaVuSerif-34"/>
      </g>
     </g>
    </g>
    <g id="xtick_10">
     <g id="line2d_64">
      <path d="M 687.787898 234.881875 
L 687.787898 23.837812 
" clip-path="url(#p0661841d75)" style="fill: none; stroke-dasharray: 1.85,0.8; stroke-dashoffset: 0; stroke: #808080; stroke-width: 0.5"/>
     </g>
     <g id="line2d_65">
      <g>
       <use xlink:href="#me0082ed2ea" x="687.787898" y="234.881875" style="stroke: #000000; stroke-width: 0.8"/>
      </g>
     </g>
     <g id="text_17">
      <!-- 5 -->
      <g transform="translate(683.970398 251) scale(0.12 -0.12)">
       <use xlink:href="#DejaVuSerif-35"/>
      </g>
     </g>
    </g>
    <g id="text_18">
     <!-- polynomial degree -->
     <g transform="translate(496.4125 266.61375) scale(0.12 -0.12)">
      <use xlink:href="#DejaVuSerif-70"/>
      <use xlink:href="#DejaVuSerif-6f" transform="translate(64.013672 0)"/>
      <use xlink:href="#DejaVuSerif-6c" transform="translate(124.21875 0)"/>
      <use xlink:href="#DejaVuSerif-79" transform="translate(156.201172 0)"/>
      <use xlink:href="#DejaVuSerif-6e" transform="translate(212.695312 0)"/>
      <use xlink:href="#DejaVuSerif-6f" transform="translate(277.099609 0)"/>
      <use xlink:href="#DejaVuSerif-6d" transform="translate(337.304688 0)"/>
      <use xlink:href="#DejaVuSerif-69" transform="translate(432.128906 0)"/>
      <use xlink:href="#DejaVuSerif-61" transform="translate(464.111328 0)"/>
      <use xlink:href="#DejaVuSerif-6c" transform="translate(523.730469 0)"/>
      <use xlink:href="#DejaVuSerif-20" transform="translate(555.712891 0)"/>
      <use xlink:href="#DejaVuSerif-64" transform="translate(587.5 0)"/>
      <use xlink:href="#DejaVuSerif-65" transform="translate(651.513672 0)"/>
      <use xlink:href="#DejaVuSerif-67" transform="translate(710.693359 0)"/>
      <use xlink:href="#DejaVuSerif-72" transform="translate(774.707031 0)"/>
      <use xlink:href="#DejaVuSerif-65" transform="translate(822.509766 0)"/>
      <use xlink:href="#DejaVuSerif-65" transform="translate(881.689453 0)"/>
     </g>
    </g>
   </g>
   <g id="matplotlib.axis_4">
    <g id="ytick_32">
     <g id="line2d_66">
      <path d="M 404.45375 225.067643 
L 701.28 225.067643 
" clip-path="url(#p0661841d75)" style="fill: none; stroke-dasharray: 1.85,0.8; stroke-dashoffset: 0; stroke: #808080; stroke-width: 0.5"/>
     </g>
     <g id="line2d_67">
      <g>
       <use xlink:href="#m7fe95203ce" x="404.45375" y="225.067643" style="stroke: #000000; stroke-width: 0.8"/>
      </g>
     </g>
     <g id="text_19">
      <!-- $\mathdefault{10^{5}}$ -->
      <g transform="translate(376.33375 229.626706) scale(0.12 -0.12)">
       <use xlink:href="#DejaVuSerif-31" transform="translate(0 0.63125)"/>
       <use xlink:href="#DejaVuSerif-30" transform="translate(63.623047 0.63125)"/>
       <use xlink:href="#DejaVuSerif-35" transform="translate(128.154453 36.965625) scale(0.7)"/>
      </g>
     </g>
    </g>
    <g id="ytick_33">
     <g id="line2d_68">
      <path d="M 404.45375 161.709945 
L 701.28 161.709945 
" clip-path="url(#p0661841d75)" style="fill: none; stroke-dasharray: 1.85,0.8; stroke-dashoffset: 0; stroke: #808080; stroke-width: 0.5"/>
     </g>
     <g id="line2d_69">
      <g>
       <use xlink:href="#m7fe95203ce" x="404.45375" y="161.709945" style="stroke: #000000; stroke-width: 0.8"/>
      </g>
     </g>
     <g id="text_20">
      <!-- $\mathdefault{10^{6}}$ -->
      <g transform="translate(376.33375 166.269008) scale(0.12 -0.12)">
       <use xlink:href="#DejaVuSerif-31" transform="translate(0 0.7125)"/>
       <use xlink:href="#DejaVuSerif-30" transform="translate(63.623047 0.7125)"/>
       <use xlink:href="#DejaVuSerif-36" transform="translate(128.154453 37.046875) scale(0.7)"/>
      </g>
     </g>
    </g>
    <g id="ytick_34">
     <g id="line2d_70">
      <path d="M 404.45375 98.352247 
L 701.28 98.352247 
" clip-path="url(#p0661841d75)" style="fill: none; stroke-dasharray: 1.85,0.8; stroke-dashoffset: 0; stroke: #808080; stroke-width: 0.5"/>
     </g>
     <g id="line2d_71">
      <g>
       <use xlink:href="#m7fe95203ce" x="404.45375" y="98.352247" style="stroke: #000000; stroke-width: 0.8"/>
      </g>
     </g>
     <g id="text_21">
      <!-- $\mathdefault{10^{7}}$ -->
      <g transform="translate(376.33375 102.91131) scale(0.12 -0.12)">
       <use xlink:href="#DejaVuSerif-31" transform="translate(0 0.63125)"/>
       <use xlink:href="#DejaVuSerif-30" transform="translate(63.623047 0.63125)"/>
       <use xlink:href="#DejaVuSerif-37" transform="translate(128.154453 36.965625) scale(0.7)"/>
      </g>
     </g>
    </g>
    <g id="ytick_35">
     <g id="line2d_72">
      <path d="M 404.45375 34.994549 
L 701.28 34.994549 
" clip-path="url(#p0661841d75)" style="fill: none; stroke-dasharray: 1.85,0.8; stroke-dashoffset: 0; stroke: #808080; stroke-width: 0.5"/>
     </g>
     <g id="line2d_73">
      <g>
       <use xlink:href="#m7fe95203ce" x="404.45375" y="34.994549" style="stroke: #000000; stroke-width: 0.8"/>
      </g>
     </g>
     <g id="text_22">
      <!-- $\mathdefault{10^{8}}$ -->
      <g transform="translate(376.33375 39.553612) scale(0.12 -0.12)">
       <use xlink:href="#DejaVuSerif-31" transform="translate(0 0.7125)"/>
       <use xlink:href="#DejaVuSerif-30" transform="translate(63.623047 0.7125)"/>
       <use xlink:href="#DejaVuSerif-38" transform="translate(128.154453 37.046875) scale(0.7)"/>
      </g>
     </g>
    </g>
    <g id="ytick_36">
     <g id="line2d_74">
      <g>
       <use xlink:href="#ma9802d4e8c" x="404.45375" y="234.881875" style="stroke: #000000; stroke-width: 0.6"/>
      </g>
     </g>
    </g>
    <g id="ytick_37">
     <g id="line2d_75">
      <g>
       <use xlink:href="#ma9802d4e8c" x="404.45375" y="231.207639" style="stroke: #000000; stroke-width: 0.6"/>
      </g>
     </g>
    </g>
    <g id="ytick_38">
     <g id="line2d_76">
      <g>
       <use xlink:href="#ma9802d4e8c" x="404.45375" y="227.966733" style="stroke: #000000; stroke-width: 0.6"/>
      </g>
     </g>
    </g>
    <g id="ytick_39">
     <g id="line2d_77">
      <g>
       <use xlink:href="#ma9802d4e8c" x="404.45375" y="205.995076" style="stroke: #000000; stroke-width: 0.6"/>
      </g>
     </g>
    </g>
    <g id="ytick_40">
     <g id="line2d_78">
      <g>
       <use xlink:href="#ma9802d4e8c" x="404.45375" y="194.838339" style="stroke: #000000; stroke-width: 0.6"/>
      </g>
     </g>
    </g>
    <g id="ytick_41">
     <g id="line2d_79">
      <g>
       <use xlink:href="#ma9802d4e8c" x="404.45375" y="186.922508" style="stroke: #000000; stroke-width: 0.6"/>
      </g>
     </g>
    </g>
    <g id="ytick_42">
     <g id="line2d_80">
      <g>
       <use xlink:href="#ma9802d4e8c" x="404.45375" y="180.782513" style="stroke: #000000; stroke-width: 0.6"/>
      </g>
     </g>
    </g>
    <g id="ytick_43">
     <g id="line2d_81">
      <g>
       <use xlink:href="#ma9802d4e8c" x="404.45375" y="175.765771" style="stroke: #000000; stroke-width: 0.6"/>
      </g>
     </g>
    </g>
    <g id="ytick_44">
     <g id="line2d_82">
      <g>
       <use xlink:href="#ma9802d4e8c" x="404.45375" y="171.524177" style="stroke: #000000; stroke-width: 0.6"/>
      </g>
     </g>
    </g>
    <g id="ytick_45">
     <g id="line2d_83">
      <g>
       <use xlink:href="#ma9802d4e8c" x="404.45375" y="167.849941" style="stroke: #000000; stroke-width: 0.6"/>
      </g>
     </g>
    </g>
    <g id="ytick_46">
     <g id="line2d_84">
      <g>
       <use xlink:href="#ma9802d4e8c" x="404.45375" y="164.609035" style="stroke: #000000; stroke-width: 0.6"/>
      </g>
     </g>
    </g>
    <g id="ytick_47">
     <g id="line2d_85">
      <g>
       <use xlink:href="#ma9802d4e8c" x="404.45375" y="142.637378" style="stroke: #000000; stroke-width: 0.6"/>
      </g>
     </g>
    </g>
    <g id="ytick_48">
     <g id="line2d_86">
      <g>
       <use xlink:href="#ma9802d4e8c" x="404.45375" y="131.480641" style="stroke: #000000; stroke-width: 0.6"/>
      </g>
     </g>
    </g>
    <g id="ytick_49">
     <g id="line2d_87">
      <g>
       <use xlink:href="#ma9802d4e8c" x="404.45375" y="123.56481" style="stroke: #000000; stroke-width: 0.6"/>
      </g>
     </g>
    </g>
    <g id="ytick_50">
     <g id="line2d_88">
      <g>
       <use xlink:href="#ma9802d4e8c" x="404.45375" y="117.424815" style="stroke: #000000; stroke-width: 0.6"/>
      </g>
     </g>
    </g>
    <g id="ytick_51">
     <g id="line2d_89">
      <g>
       <use xlink:href="#ma9802d4e8c" x="404.45375" y="112.408073" style="stroke: #000000; stroke-width: 0.6"/>
      </g>
     </g>
    </g>
    <g id="ytick_52">
     <g id="line2d_90">
      <g>
       <use xlink:href="#ma9802d4e8c" x="404.45375" y="108.166479" style="stroke: #000000; stroke-width: 0.6"/>
      </g>
     </g>
    </g>
    <g id="ytick_53">
     <g id="line2d_91">
      <g>
       <use xlink:href="#ma9802d4e8c" x="404.45375" y="104.492243" style="stroke: #000000; stroke-width: 0.6"/>
      </g>
     </g>
    </g>
    <g id="ytick_54">
     <g id="line2d_92">
      <g>
       <use xlink:href="#ma9802d4e8c" x="404.45375" y="101.251337" style="stroke: #000000; stroke-width: 0.6"/>
      </g>
     </g>
    </g>
    <g id="ytick_55">
     <g id="line2d_93">
      <g>
       <use xlink:href="#ma9802d4e8c" x="404.45375" y="79.27968" style="stroke: #000000; stroke-width: 0.6"/>
      </g>
     </g>
    </g>
    <g id="ytick_56">
     <g id="line2d_94">
      <g>
       <use xlink:href="#ma9802d4e8c" x="404.45375" y="68.122943" style="stroke: #000000; stroke-width: 0.6"/>
      </g>
     </g>
    </g>
    <g id="ytick_57">
     <g id="line2d_95">
      <g>
       <use xlink:href="#ma9802d4e8c" x="404.45375" y="60.207112" style="stroke: #000000; stroke-width: 0.6"/>
      </g>
     </g>
    </g>
    <g id="ytick_58">
     <g id="line2d_96">
      <g>
       <use xlink:href="#ma9802d4e8c" x="404.45375" y="54.067117" style="stroke: #000000; stroke-width: 0.6"/>
      </g>
     </g>
    </g>
    <g id="ytick_59">
     <g id="line2d_97">
      <g>
       <use xlink:href="#ma9802d4e8c" x="404.45375" y="49.050375" style="stroke: #000000; stroke-width: 0.6"/>
      </g>
     </g>
    </g>
    <g id="ytick_60">
     <g id="line2d_98">
      <g>
       <use xlink:href="#ma9802d4e8c" x="404.45375" y="44.808781" style="stroke: #000000; stroke-width: 0.6"/>
      </g>
     </g>
    </g>
    <g id="ytick_61">
     <g id="line2d_99">
      <g>
       <use xlink:href="#ma9802d4e8c" x="404.45375" y="41.134545" style="stroke: #000000; stroke-width: 0.6"/>
      </g>
     </g>
    </g>
    <g id="ytick_62">
     <g id="line2d_100">
      <g>
       <use xlink:href="#ma9802d4e8c" x="404.45375" y="37.893639" style="stroke: #000000; stroke-width: 0.6"/>
      </g>
     </g>
    </g>
    <g id="text_23">
     <!-- DoF/s -->
     <g transform="translate(369.838125 147.045781) rotate(-90) scale(0.12 -0.12)">
      <use xlink:href="#DejaVuSerif-44"/>
      <use xlink:href="#DejaVuSerif-6f" transform="translate(80.175781 0)"/>
      <use xlink:href="#DejaVuSerif-46" transform="translate(140.380859 0)"/>
      <use xlink:href="#DejaVuSerif-2f" transform="translate(209.765625 0)"/>
      <use xlink:href="#DejaVuSerif-73" transform="translate(243.457031 0)"/>
     </g>
    </g>
   </g>
   <g id="patch_8">
    <path d="M 404.45375 234.881875 
L 404.45375 23.837812 
" style="fill: none; stroke: #000000; stroke-width: 0.8; stroke-linejoin: miter; stroke-linecap: square"/>
   </g>
   <g id="patch_9">
    <path d="M 701.28 234.881875 
L 701.28 23.837812 
" style="fill: none; stroke: #000000; stroke-width: 0.8; stroke-linejoin: miter; stroke-linecap: square"/>
   </g>
   <g id="patch_10">
    <path d="M 404.45375 234.881875 
L 701.28 234.881875 
" style="fill: none; stroke: #000000; stroke-width: 0.8; stroke-linejoin: miter; stroke-linecap: square"/>
   </g>
   <g id="patch_11">
    <path d="M 404.45375 23.837812 
L 701.28 23.837812 
" style="fill: none; stroke: #000000; stroke-width: 0.8; stroke-linejoin: miter; stroke-linecap: square"/>
   </g>
   <g id="text_24">
    <!-- 3D -->
    <g transform="translate(542.801094 17.837812) scale(0.14 -0.14)">
     <use xlink:href="#DejaVuSerif-33"/>
     <use xlink:href="#DejaVuSerif-44" transform="translate(63.623047 0)"/>
    </g>
   </g>
   <g id="line2d_101">
    <path d="M 417.945852 80.834936 
L 485.406364 113.459424 
L 552.866875 172.773858 
L 620.327386 191.477268 
L 687.787898 208.65179 
" clip-path="url(#p0661841d75)" style="fill: none; stroke-dasharray: 4.44,1.92; stroke-dashoffset: 0; stroke: #e377c2; stroke-width: 1.2"/>
    <g clip-path="url(#p0661841d75)">
     <use xlink:href="#me0c309f6e5" x="417.945852" y="80.834936" style="fill: #e377c2; stroke: #e377c2"/>
     <use xlink:href="#me0c309f6e5" x="485.406364" y="113.459424" style="fill: #e377c2; stroke: #e377c2"/>
     <use xlink:href="#me0c309f6e5" x="552.866875" y="172.773858" style="fill: #e377c2; stroke: #e377c2"/>
     <use xlink:href="#me0c309f6e5" x="620.327386" y="191.477268" style="fill: #e377c2; stroke: #e377c2"/>
     <use xlink:href="#me0c309f6e5" x="687.787898" y="208.65179" style="fill: #e377c2; stroke: #e377c2"/>
    </g>
   </g>
   <g id="line2d_102">
    <path d="M 417.945852 92.13573 
L 485.406364 120.320445 
L 552.866875 183.846588 
L 620.327386 195.27872 
L 687.787898 206.480351 
" clip-path="url(#p0661841d75)" style="fill: none; stroke-dasharray: 4.44,1.92; stroke-dashoffset: 0; stroke: #7f7f7f; stroke-width: 1.2"/>
    <g clip-path="url(#p0661841d75)">
     <use xlink:href="#m91c7303c7b" x="417.945852" y="92.13573" style="fill: #7f7f7f; stroke: #7f7f7f"/>
     <use xlink:href="#m91c7303c7b" x="485.406364" y="120.320445" style="fill: #7f7f7f; stroke: #7f7f7f"/>
     <use xlink:href="#m91c7303c7b" x="552.866875" y="183.846588" style="fill: #7f7f7f; stroke: #7f7f7f"/>
     <use xlink:href="#m91c7303c7b" x="620.327386" y="195.27872" style="fill: #7f7f7f; stroke: #7f7f7f"/>
     <use xlink:href="#m91c7303c7b" x="687.787898" y="206.480351" style="fill: #7f7f7f; stroke: #7f7f7f"/>
    </g>
   </g>
   <g id="line2d_103">
    <path d="M 417.945852 85.150952 
L 485.406364 117.816268 
L 552.866875 173.297918 
L 620.327386 194.759815 
L 687.787898 208.947796 
" clip-path="url(#p0661841d75)" style="fill: none; stroke-dasharray: 4.44,1.92; stroke-dashoffset: 0; stroke: #bcbd22; stroke-width: 1.2"/>
    <g clip-path="url(#p0661841d75)">
     <use xlink:href="#m4b5a913544" x="417.945852" y="85.150952" style="fill: #bcbd22; stroke: #bcbd22"/>
     <use xlink:href="#m4b5a913544" x="485.406364" y="117.816268" style="fill: #bcbd22; stroke: #bcbd22"/>
     <use xlink:href="#m4b5a913544" x="552.866875" y="173.297918" style="fill: #bcbd22; stroke: #bcbd22"/>
     <use xlink:href="#m4b5a913544" x="620.327386" y="194.759815" style="fill: #bcbd22; stroke: #bcbd22"/>
     <use xlink:href="#m4b5a913544" x="687.787898" y="208.947796" style="fill: #bcbd22; stroke: #bcbd22"/>
    </g>
   </g>
   <g id="line2d_104">
    <path d="M 417.945852 89.622768 
L 485.406364 117.747056 
L 552.866875 139.45367 
L 620.327386 166.046664 
L 687.787898 183.151347 
" clip-path="url(#p0661841d75)" style="fill: none; stroke-dasharray: 4.44,1.92; stroke-dashoffset: 0; stroke: #17becf; stroke-width: 1.2"/>
    <g clip-path="url(#p0661841d75)">
     <use xlink:href="#m4a9de9259d" x="417.945852" y="89.622768" style="fill: #17becf; stroke: #17becf"/>
     <use xlink:href="#m4a9de9259d" x="485.406364" y="117.747056" style="fill: #17becf; stroke: #17becf"/>
     <use xlink:href="#m4a9de9259d" x="552.866875" y="139.45367" style="fill: #17becf; stroke: #17becf"/>
     <use xlink:href="#m4a9de9259d" x="620.327386" y="166.046664" style="fill: #17becf; stroke: #17becf"/>
     <use xlink:href="#m4a9de9259d" x="687.787898" y="183.151347" style="fill: #17becf; stroke: #17becf"/>
    </g>
   </g>
   <g id="line2d_105">
    <path d="M 417.945852 72.30286 
L 485.406364 104.178701 
L 552.866875 165.887652 
L 620.327386 183.514471 
L 687.787898 201.74104 
" clip-path="url(#p0661841d75)" style="fill: none; stroke: #e377c2; stroke-width: 1.2; stroke-linecap: square"/>
    <g clip-path="url(#p0661841d75)">
     <use xlink:href="#me0c309f6e5" x="417.945852" y="72.30286" style="fill: #e377c2; stroke: #e377c2"/>
     <use xlink:href="#me0c309f6e5" x="485.406364" y="104.178701" style="fill: #e377c2; stroke: #e377c2"/>
     <use xlink:href="#me0c309f6e5" x="552.866875" y="165.887652" style="fill: #e377c2; stroke: #e377c2"/>
     <use xlink:href="#me0c309f6e5" x="620.327386" y="183.514471" style="fill: #e377c2; stroke: #e377c2"/>
     <use xlink:href="#me0c309f6e5" x="687.787898" y="201.74104" style="fill: #e377c2; stroke: #e377c2"/>
    </g>
   </g>
   <g id="line2d_106">
    <path d="M 417.945852 80.044894 
L 485.406364 107.903605 
L 552.866875 174.561777 
L 620.327386 184.199986 
L 687.787898 197.840747 
" clip-path="url(#p0661841d75)" style="fill: none; stroke: #7f7f7f; stroke-width: 1.2; stroke-linecap: square"/>
    <g clip-path="url(#p0661841d75)">
     <use xlink:href="#m91c7303c7b" x="417.945852" y="80.044894" style="fill: #7f7f7f; stroke: #7f7f7f"/>
     <use xlink:href="#m91c7303c7b" x="485.406364" y="107.903605" style="fill: #7f7f7f; stroke: #7f7f7f"/>
     <use xlink:href="#m91c7303c7b" x="552.866875" y="174.561777" style="fill: #7f7f7f; stroke: #7f7f7f"/>
     <use xlink:href="#m91c7303c7b" x="620.327386" y="184.199986" style="fill: #7f7f7f; stroke: #7f7f7f"/>
     <use xlink:href="#m91c7303c7b" x="687.787898" y="197.840747" style="fill: #7f7f7f; stroke: #7f7f7f"/>
    </g>
   </g>
   <g id="line2d_107">
    <path d="M 417.945852 74.797069 
L 485.406364 106.740648 
L 552.866875 164.488658 
L 620.327386 184.586051 
L 687.787898 201.159555 
" clip-path="url(#p0661841d75)" style="fill: none; stroke: #bcbd22; stroke-width: 1.2; stroke-linecap: square"/>
    <g clip-path="url(#p0661841d75)">
     <use xlink:href="#m4b5a913544" x="417.945852" y="74.797069" style="fill: #bcbd22; stroke: #bcbd22"/>
     <use xlink:href="#m4b5a913544" x="485.406364" y="106.740648" style="fill: #bcbd22; stroke: #bcbd22"/>
     <use xlink:href="#m4b5a913544" x="552.866875" y="164.488658" style="fill: #bcbd22; stroke: #bcbd22"/>
     <use xlink:href="#m4b5a913544" x="620.327386" y="184.586051" style="fill: #bcbd22; stroke: #bcbd22"/>
     <use xlink:href="#m4b5a913544" x="687.787898" y="201.159555" style="fill: #bcbd22; stroke: #bcbd22"/>
    </g>
   </g>
   <g id="line2d_108">
    <path d="M 417.945852 85.343017 
L 485.406364 111.374923 
L 552.866875 129.328635 
M 687.787898 173.828017 
" clip-path="url(#p0661841d75)" style="fill: none; stroke: #17becf; stroke-width: 1.2; stroke-linecap: square"/>
    <g clip-path="url(#p0661841d75)">
     <use xlink:href="#m4a9de9259d" x="417.945852" y="85.343017" style="fill: #17becf; stroke: #17becf"/>
     <use xlink:href="#m4a9de9259d" x="485.406364" y="111.374923" style="fill: #17becf; stroke: #17becf"/>
     <use xlink:href="#m4a9de9259d" x="552.866875" y="129.328635" style="fill: #17becf; stroke: #17becf"/>
     <use xlink:href="#m4a9de9259d" x="687.787898" y="173.828017" style="fill: #17becf; stroke: #17becf"/>
    </g>
   </g>
   <g id="line2d_109">
    <path d="M 417.945852 63.28813 
L 485.406364 88.559831 
L 552.866875 107.226647 
L 620.327386 122.216077 
L 687.787898 141.233092 
" clip-path="url(#p0661841d75)" style="fill: none; stroke: #2ca02c; stroke-width: 1.2; stroke-linecap: square"/>
    <g clip-path="url(#p0661841d75)">
     <use xlink:href="#m1b86378f0d" x="417.945852" y="63.28813" style="fill: #2ca02c; stroke: #2ca02c"/>
     <use xlink:href="#m1b86378f0d" x="485.406364" y="88.559831" style="fill: #2ca02c; stroke: #2ca02c"/>
     <use xlink:href="#m1b86378f0d" x="552.866875" y="107.226647" style="fill: #2ca02c; stroke: #2ca02c"/>
     <use xlink:href="#m1b86378f0d" x="620.327386" y="122.216077" style="fill: #2ca02c; stroke: #2ca02c"/>
     <use xlink:href="#m1b86378f0d" x="687.787898" y="141.233092" style="fill: #2ca02c; stroke: #2ca02c"/>
    </g>
   </g>
   <g id="line2d_110">
    <path d="M 417.945852 71.168392 
L 485.406364 97.067532 
L 552.866875 117.592201 
L 620.327386 133.498215 
L 687.787898 152.579456 
" clip-path="url(#p0661841d75)" style="fill: none; stroke: #ff7f0e; stroke-width: 1.2; stroke-linecap: square"/>
    <g clip-path="url(#p0661841d75)">
     <use xlink:href="#m9a802500ee" x="417.945852" y="71.168392" style="fill: #ff7f0e; stroke: #ff7f0e"/>
     <use xlink:href="#m9a802500ee" x="485.406364" y="97.067532" style="fill: #ff7f0e; stroke: #ff7f0e"/>
     <use xlink:href="#m9a802500ee" x="552.866875" y="117.592201" style="fill: #ff7f0e; stroke: #ff7f0e"/>
     <use xlink:href="#m9a802500ee" x="620.327386" y="133.498215" style="fill: #ff7f0e; stroke: #ff7f0e"/>
     <use xlink:href="#m9a802500ee" x="687.787898" y="152.579456" style="fill: #ff7f0e; stroke: #ff7f0e"/>
    </g>
   </g>
  </g>
  <g id="legend_1">
   <g id="patch_12">
    <path d="M 52.726875 345.6825 
L 554.953125 345.6825 
Q 557.353125 345.6825 557.353125 343.2825 
L 557.353125 290.64 
Q 557.353125 288.24 554.953125 288.24 
L 52.726875 288.24 
Q 50.326875 288.24 50.326875 290.64 
L 50.326875 343.2825 
Q 50.326875 345.6825 52.726875 345.6825 
z
" style="fill: #ffffff; opacity: 0.8; stroke: #cccccc; stroke-linejoin: miter"/>
   </g>
   <g id="line2d_111">
    <path d="M 55.126875 297.958125 
L 67.126875 297.958125 
L 79.126875 297.958125 
" style="fill: none; stroke: #2ca02c; stroke-width: 1.2; stroke-linecap: square"/>
    <g>
     <use xlink:href="#m1b86378f0d" x="67.126875" y="297.958125" style="fill: #2ca02c; stroke: #2ca02c"/>
    </g>
   </g>
   <g id="text_25">
    <!-- Hybrid Schwarz -->
    <g transform="translate(88.726875 302.158125) scale(0.12 -0.12)">
     <defs>
      <path id="DejaVuSerif-48" d="M 353 0 
L 353 331 
L 947 331 
L 947 4331 
L 353 4331 
L 353 4666 
L 2175 4666 
L 2175 4331 
L 1581 4331 
L 1581 2719 
L 4000 2719 
L 4000 4331 
L 3406 4331 
L 3406 4666 
L 5228 4666 
L 5228 4331 
L 4634 4331 
L 4634 331 
L 5228 331 
L 5228 0 
L 3406 0 
L 3406 331 
L 4000 331 
L 4000 2338 
L 1581 2338 
L 1581 331 
L 2175 331 
L 2175 0 
L 353 0 
z
" transform="scale(0.015625)"/>
      <path id="DejaVuSerif-62" d="M 738 331 
L 738 4531 
L 184 4531 
L 184 4863 
L 1313 4863 
L 1313 2803 
Q 1481 3116 1742 3264 
Q 2003 3413 2388 3413 
Q 3000 3413 3387 2928 
Q 3775 2444 3775 1663 
Q 3775 881 3387 395 
Q 3000 -91 2388 -91 
Q 2003 -91 1742 57 
Q 1481 206 1313 519 
L 1313 0 
L 184 0 
L 184 331 
L 738 331 
z
M 1313 1497 
Q 1313 897 1542 583 
Q 1772 269 2209 269 
Q 2650 269 2876 622 
Q 3103 975 3103 1663 
Q 3103 2353 2876 2703 
Q 2650 3053 2209 3053 
Q 1772 3053 1542 2737 
Q 1313 2422 1313 1825 
L 1313 1497 
z
" transform="scale(0.015625)"/>
      <path id="DejaVuSerif-53" d="M 594 225 
L 594 1288 
L 953 1284 
Q 969 753 1261 498 
Q 1553 244 2150 244 
Q 2706 244 2998 464 
Q 3291 684 3291 1106 
Q 3291 1444 3114 1625 
Q 2938 1806 2369 1978 
L 1753 2163 
Q 1084 2366 811 2669 
Q 538 2972 538 3500 
Q 538 4094 959 4422 
Q 1381 4750 2144 4750 
Q 2469 4750 2856 4679 
Q 3244 4609 3681 4475 
L 3681 3481 
L 3328 3481 
Q 3275 3975 2998 4195 
Q 2722 4416 2156 4416 
Q 1663 4416 1405 4214 
Q 1147 4013 1147 3628 
Q 1147 3294 1340 3103 
Q 1534 2913 2163 2725 
L 2741 2553 
Q 3375 2363 3645 2067 
Q 3916 1772 3916 1275 
Q 3916 597 3481 253 
Q 3047 -91 2188 -91 
Q 1803 -91 1404 -12 
Q 1006 66 594 225 
z
" transform="scale(0.015625)"/>
      <path id="DejaVuSerif-63" d="M 3291 997 
Q 3169 466 2822 187 
Q 2475 -91 1925 -91 
Q 1200 -91 759 389 
Q 319 869 319 1663 
Q 319 2459 759 2936 
Q 1200 3413 1925 3413 
Q 2241 3413 2553 3339 
Q 2866 3266 3181 3116 
L 3181 2266 
L 2847 2266 
Q 2781 2703 2561 2903 
Q 2341 3103 1931 3103 
Q 1466 3103 1228 2742 
Q 991 2381 991 1663 
Q 991 944 1227 581 
Q 1463 219 1931 219 
Q 2303 219 2525 412 
Q 2747 606 2828 997 
L 3291 997 
z
" transform="scale(0.015625)"/>
      <path id="DejaVuSerif-68" d="M 263 0 
L 263 331 
L 781 331 
L 781 4531 
L 231 4531 
L 231 4863 
L 1356 4863 
L 1356 2731 
Q 1516 3069 1770 3241 
Q 2025 3413 2363 3413 
Q 2913 3413 3172 3097 
Q 3431 2781 3431 2113 
L 3431 331 
L 3944 331 
L 3944 0 
L 2356 0 
L 2356 331 
L 2853 331 
L 2853 1931 
Q 2853 2541 2704 2764 
Q 2556 2988 2175 2988 
Q 1775 2988 1565 2697 
Q 1356 2406 1356 1850 
L 1356 331 
L 1856 331 
L 1856 0 
L 263 0 
z
" transform="scale(0.015625)"/>
      <path id="DejaVuSerif-77" d="M 3072 3322 
L 3922 728 
L 4672 2988 
L 4191 2988 
L 4191 3322 
L 5394 3322 
L 5394 2988 
L 5025 2988 
L 4038 0 
L 3559 0 
L 2741 2484 
L 1919 0 
L 1459 0 
L 475 2988 
L 103 2988 
L 103 3322 
L 1606 3322 
L 1606 2988 
L 1069 2988 
L 1813 728 
L 2669 3322 
L 3072 3322 
z
" transform="scale(0.015625)"/>
      <path id="DejaVuSerif-7a" d="M 256 0 
L 256 269 
L 2338 2988 
L 691 2988 
L 691 2413 
L 359 2413 
L 359 3322 
L 3078 3322 
L 3078 3053 
L 997 331 
L 2803 331 
L 2803 934 
L 3138 934 
L 3138 0 
L 256 0 
z
" transform="scale(0.015625)"/>
     </defs>
     <use xlink:href="#DejaVuSerif-48"/>
     <use xlink:href="#DejaVuSerif-79" transform="translate(87.207031 0)"/>
     <use xlink:href="#DejaVuSerif-62" transform="translate(143.701172 0)"/>
     <use xlink:href="#DejaVuSerif-72" transform="translate(207.714844 0)"/>
     <use xlink:href="#DejaVuSerif-69" transform="translate(255.517578 0)"/>
     <use xlink:href="#DejaVuSerif-64" transform="translate(287.5 0)"/>
     <use xlink:href="#DejaVuSerif-20" transform="translate(351.513672 0)"/>
     <use xlink:href="#DejaVuSerif-53" transform="translate(383.300781 0)"/>
     <use xlink:href="#DejaVuSerif-63" transform="translate(451.806641 0)"/>
     <use xlink:href="#DejaVuSerif-68" transform="translate(507.8125 0)"/>
     <use xlink:href="#DejaVuSerif-77" transform="translate(572.216797 0)"/>
     <use xlink:href="#DejaVuSerif-61" transform="translate(657.8125 0)"/>
     <use xlink:href="#DejaVuSerif-72" transform="translate(717.431641 0)"/>
     <use xlink:href="#DejaVuSerif-7a" transform="translate(765.234375 0)"/>
    </g>
   </g>
   <g id="line2d_112">
    <path d="M 55.126875 315.7425 
L 67.126875 315.7425 
L 79.126875 315.7425 
" style="fill: none; stroke: #ff7f0e; stroke-width: 1.2; stroke-linecap: square"/>
    <g>
     <use xlink:href="#m9a802500ee" x="67.126875" y="315.7425" style="fill: #ff7f0e; stroke: #ff7f0e"/>
    </g>
   </g>
   <g id="text_26">
    <!-- Additive Schwarz -->
    <g transform="translate(88.726875 319.9425) scale(0.12 -0.12)">
     <defs>
      <path id="DejaVuSerif-41" d="M 1281 1691 
L 2994 1691 
L 2138 3909 
L 1281 1691 
z
M -38 0 
L -38 331 
L 372 331 
L 2034 4666 
L 2559 4666 
L 4225 331 
L 4684 331 
L 4684 0 
L 2988 0 
L 2988 331 
L 3506 331 
L 3116 1356 
L 1153 1356 
L 763 331 
L 1275 331 
L 1275 0 
L -38 0 
z
" transform="scale(0.015625)"/>
      <path id="DejaVuSerif-74" d="M 691 2988 
L 184 2988 
L 184 3322 
L 691 3322 
L 691 4353 
L 1269 4353 
L 1269 3322 
L 2350 3322 
L 2350 2988 
L 1269 2988 
L 1269 878 
Q 1269 456 1350 337 
Q 1431 219 1650 219 
Q 1875 219 1978 351 
Q 2081 484 2088 781 
L 2522 781 
Q 2497 328 2275 118 
Q 2053 -91 1600 -91 
Q 1103 -91 897 129 
Q 691 350 691 878 
L 691 2988 
z
" transform="scale(0.015625)"/>
      <path id="DejaVuSerif-76" d="M 1581 0 
L 359 2988 
L -19 2988 
L -19 3322 
L 1509 3322 
L 1509 2988 
L 978 2988 
L 1913 703 
L 2847 2988 
L 2350 2988 
L 2350 3322 
L 3597 3322 
L 3597 2988 
L 3225 2988 
L 2003 0 
L 1581 0 
z
" transform="scale(0.015625)"/>
     </defs>
     <use xlink:href="#DejaVuSerif-41"/>
     <use xlink:href="#DejaVuSerif-64" transform="translate(72.216797 0)"/>
     <use xlink:href="#DejaVuSerif-64" transform="translate(136.230469 0)"/>
     <use xlink:href="#DejaVuSerif-69" transform="translate(200.244141 0)"/>
     <use xlink:href="#DejaVuSerif-74" transform="translate(232.226562 0)"/>
     <use xlink:href="#DejaVuSerif-69" transform="translate(272.412109 0)"/>
     <use xlink:href="#DejaVuSerif-76" transform="translate(304.394531 0)"/>
     <use xlink:href="#DejaVuSerif-65" transform="translate(360.888672 0)"/>
     <use xlink:href="#DejaVuSerif-20" transform="translate(420.068359 0)"/>
     <use xlink:href="#DejaVuSerif-53" transform="translate(451.855469 0)"/>
     <use xlink:href="#DejaVuSerif-63" transform="translate(520.361328 0)"/>
     <use xlink:href="#DejaVuSerif-68" transform="translate(576.367188 0)"/>
     <use xlink:href="#DejaVuSerif-77" transform="translate(640.771484 0)"/>
     <use xlink:href="#DejaVuSerif-61" transform="translate(726.367188 0)"/>
     <use xlink:href="#DejaVuSerif-72" transform="translate(785.986328 0)"/>
     <use xlink:href="#DejaVuSerif-7a" transform="translate(833.789062 0)"/>
    </g>
   </g>
   <g id="line2d_113">
    <path d="M 55.126875 333.35625 
L 67.126875 333.35625 
L 79.126875 333.35625 
" style="fill: none; stroke: #e377c2; stroke-width: 1.2; stroke-linecap: square"/>
    <g>
     <use xlink:href="#me0c309f6e5" x="67.126875" y="333.35625" style="fill: #e377c2; stroke: #e377c2"/>
    </g>
   </g>
   <g id="text_27">
    <!-- AmgX (AGGRESSIVE_L1) -->
    <g transform="translate(88.726875 337.55625) scale(0.12 -0.12)">
     <defs>
      <path id="DejaVuSerif-58" d="M 2119 1997 
L 978 331 
L 1581 331 
L 1581 0 
L 38 0 
L 38 331 
L 575 331 
L 1919 2291 
L 556 4331 
L 56 4331 
L 56 4666 
L 1906 4666 
L 1906 4331 
L 1356 4331 
L 2356 2828 
L 3384 4331 
L 2784 4331 
L 2784 4666 
L 4313 4666 
L 4313 4331 
L 3788 4331 
L 2553 2534 
L 4025 331 
L 4525 331 
L 4525 0 
L 2675 0 
L 2675 331 
L 3231 331 
L 2119 1997 
z
" transform="scale(0.015625)"/>
      <path id="DejaVuSerif-28" d="M 2041 -997 
Q 1281 -656 893 83 
Q 506 822 506 1931 
Q 506 3044 893 3783 
Q 1281 4522 2041 4863 
L 2041 4556 
Q 1559 4225 1350 3623 
Q 1141 3022 1141 1931 
Q 1141 844 1350 242 
Q 1559 -359 2041 -691 
L 2041 -997 
z
" transform="scale(0.015625)"/>
      <path id="DejaVuSerif-47" d="M 4097 3272 
Q 3988 3856 3641 4136 
Q 3294 4416 2675 4416 
Q 1869 4416 1472 3897 
Q 1075 3378 1075 2328 
Q 1075 1300 1484 772 
Q 1894 244 2688 244 
Q 3041 244 3362 331 
Q 3684 419 3975 594 
L 3975 1797 
L 3097 1797 
L 3097 2131 
L 4609 2131 
L 4609 391 
Q 4194 150 3714 29 
Q 3234 -91 2688 -91 
Q 1631 -91 995 570 
Q 359 1231 359 2328 
Q 359 3434 996 4092 
Q 1634 4750 2713 4750 
Q 3113 4750 3539 4658 
Q 3966 4566 4447 4378 
L 4447 3272 
L 4097 3272 
z
" transform="scale(0.015625)"/>
      <path id="DejaVuSerif-52" d="M 3066 2316 
Q 3284 2256 3442 2114 
Q 3600 1972 3725 1716 
L 4403 331 
L 4972 331 
L 4972 0 
L 3872 0 
L 3144 1484 
Q 2934 1916 2759 2042 
Q 2584 2169 2278 2169 
L 1581 2169 
L 1581 331 
L 2241 331 
L 2241 0 
L 353 0 
L 353 331 
L 947 331 
L 947 4331 
L 353 4331 
L 353 4666 
L 2719 4666 
Q 3400 4666 3770 4341 
Q 4141 4016 4141 3419 
Q 4141 2938 3870 2661 
Q 3600 2384 3066 2316 
z
M 1581 2503 
L 2503 2503 
Q 2975 2503 3200 2726 
Q 3425 2950 3425 3419 
Q 3425 3888 3200 4109 
Q 2975 4331 2503 4331 
L 1581 4331 
L 1581 2503 
z
" transform="scale(0.015625)"/>
      <path id="DejaVuSerif-45" d="M 353 0 
L 353 331 
L 947 331 
L 947 4331 
L 353 4331 
L 353 4666 
L 4109 4666 
L 4109 3628 
L 3725 3628 
L 3725 4281 
L 1581 4281 
L 1581 2719 
L 3109 2719 
L 3109 3303 
L 3494 3303 
L 3494 1753 
L 3109 1753 
L 3109 2338 
L 1581 2338 
L 1581 384 
L 3775 384 
L 3775 1038 
L 4159 1038 
L 4159 0 
L 353 0 
z
" transform="scale(0.015625)"/>
      <path id="DejaVuSerif-49" d="M 1581 331 
L 2175 331 
L 2175 0 
L 353 0 
L 353 331 
L 947 331 
L 947 4331 
L 353 4331 
L 353 4666 
L 2175 4666 
L 2175 4331 
L 1581 4331 
L 1581 331 
z
" transform="scale(0.015625)"/>
      <path id="DejaVuSerif-56" d="M 1119 4331 
L 2497 750 
L 3872 4331 
L 3347 4331 
L 3347 4666 
L 4716 4666 
L 4716 4331 
L 4263 4331 
L 2597 0 
L 2059 0 
L 403 4331 
L -63 4331 
L -63 4666 
L 1638 4666 
L 1638 4331 
L 1119 4331 
z
" transform="scale(0.015625)"/>
      <path id="DejaVuSerif-5f" d="M 3200 -1259 
L 3200 -1509 
L 0 -1509 
L 0 -1259 
L 3200 -1259 
z
" transform="scale(0.015625)"/>
      <path id="DejaVuSerif-4c" d="M 353 0 
L 353 331 
L 947 331 
L 947 4331 
L 353 4331 
L 353 4666 
L 2175 4666 
L 2175 4331 
L 1581 4331 
L 1581 384 
L 3713 384 
L 3713 1166 
L 4097 1166 
L 4097 0 
L 353 0 
z
" transform="scale(0.015625)"/>
      <path id="DejaVuSerif-29" d="M 453 -997 
L 453 -691 
Q 934 -359 1145 242 
Q 1356 844 1356 1931 
Q 1356 3022 1145 3623 
Q 934 4225 453 4556 
L 453 4863 
Q 1216 4522 1603 3783 
Q 1991 3044 1991 1931 
Q 1991 822 1603 83 
Q 1216 -656 453 -997 
z
" transform="scale(0.015625)"/>
     </defs>
     <use xlink:href="#DejaVuSerif-41"/>
     <use xlink:href="#DejaVuSerif-6d" transform="translate(72.216797 0)"/>
     <use xlink:href="#DejaVuSerif-67" transform="translate(167.041016 0)"/>
     <use xlink:href="#DejaVuSerif-58" transform="translate(231.054688 0)"/>
     <use xlink:href="#DejaVuSerif-20" transform="translate(302.246094 0)"/>
     <use xlink:href="#DejaVuSerif-28" transform="translate(334.033203 0)"/>
     <use xlink:href="#DejaVuSerif-41" transform="translate(373.046875 0)"/>
     <use xlink:href="#DejaVuSerif-47" transform="translate(445.263672 0)"/>
     <use xlink:href="#DejaVuSerif-47" transform="translate(525.146484 0)"/>
     <use xlink:href="#DejaVuSerif-52" transform="translate(605.029297 0)"/>
     <use xlink:href="#DejaVuSerif-45" transform="translate(680.322266 0)"/>
     <use xlink:href="#DejaVuSerif-53" transform="translate(753.320312 0)"/>
     <use xlink:href="#DejaVuSerif-53" transform="translate(820.076172 0)"/>
     <use xlink:href="#DejaVuSerif-49" transform="translate(888.582031 0)"/>
     <use xlink:href="#DejaVuSerif-56" transform="translate(928.083984 0)"/>
     <use xlink:href="#DejaVuSerif-45" transform="translate(1000.300781 0)"/>
     <use xlink:href="#DejaVuSerif-5f" transform="translate(1073.298828 0)"/>
     <use xlink:href="#DejaVuSerif-4c" transform="translate(1123.298828 0)"/>
     <use xlink:href="#DejaVuSerif-31" transform="translate(1189.705078 0)"/>
     <use xlink:href="#DejaVuSerif-29" transform="translate(1253.328125 0)"/>
    </g>
   </g>
   <g id="line2d_114">
    <path d="M 267.81 297.958125 
L 279.81 297.958125 
L 291.81 297.958125 
" style="fill: none; stroke: #7f7f7f; stroke-width: 1.2; stroke-linecap: square"/>
    <g>
     <use xlink:href="#m91c7303c7b" x="279.81" y="297.958125" style="fill: #7f7f7f; stroke: #7f7f7f"/>
    </g>
   </g>
   <g id="text_28">
    <!-- AmgX (AGGRESSIVE_CHEB_L1_TRUNC) -->
    <g transform="translate(301.41 302.158125) scale(0.12 -0.12)">
     <defs>
      <path id="DejaVuSerif-43" d="M 4513 1234 
Q 4306 581 3820 245 
Q 3334 -91 2591 -91 
Q 2134 -91 1743 65 
Q 1353 222 1050 525 
Q 700 875 529 1320 
Q 359 1766 359 2328 
Q 359 3416 987 4083 
Q 1616 4750 2644 4750 
Q 3025 4750 3456 4650 
Q 3888 4550 4384 4347 
L 4384 3272 
L 4031 3272 
Q 3916 3859 3567 4137 
Q 3219 4416 2591 4416 
Q 1844 4416 1459 3886 
Q 1075 3356 1075 2328 
Q 1075 1303 1459 773 
Q 1844 244 2591 244 
Q 3113 244 3450 492 
Q 3788 741 3938 1234 
L 4513 1234 
z
" transform="scale(0.015625)"/>
      <path id="DejaVuSerif-42" d="M 1581 331 
L 2516 331 
Q 3078 331 3337 575 
Q 3597 819 3597 1350 
Q 3597 1878 3339 2120 
Q 3081 2363 2516 2363 
L 1581 2363 
L 1581 331 
z
M 1581 2694 
L 2375 2694 
Q 2888 2694 3123 2891 
Q 3359 3088 3359 3513 
Q 3359 3941 3123 4136 
Q 2888 4331 2375 4331 
L 1581 4331 
L 1581 2694 
z
M 353 0 
L 353 331 
L 947 331 
L 947 4331 
L 353 4331 
L 353 4666 
L 2656 4666 
Q 3363 4666 3720 4377 
Q 4078 4088 4078 3513 
Q 4078 3097 3829 2850 
Q 3581 2603 3103 2547 
Q 3697 2472 4005 2167 
Q 4313 1863 4313 1350 
Q 4313 656 3875 328 
Q 3438 0 2509 0 
L 353 0 
z
" transform="scale(0.015625)"/>
      <path id="DejaVuSerif-54" d="M 1222 0 
L 1222 331 
L 1819 331 
L 1819 4294 
L 447 4294 
L 447 3566 
L 63 3566 
L 63 4666 
L 4206 4666 
L 4206 3566 
L 3822 3566 
L 3822 4294 
L 2450 4294 
L 2450 331 
L 3047 331 
L 3047 0 
L 1222 0 
z
" transform="scale(0.015625)"/>
      <path id="DejaVuSerif-55" d="M 897 4331 
L 300 4331 
L 300 4666 
L 2125 4666 
L 2125 4331 
L 1528 4331 
L 1528 1919 
Q 1528 1025 1820 672 
Q 2113 319 2828 319 
Q 3544 319 3836 672 
Q 4128 1025 4128 1919 
L 4128 4331 
L 3531 4331 
L 3531 4666 
L 5106 4666 
L 5106 4331 
L 4513 4331 
L 4513 1856 
Q 4513 791 4103 350 
Q 3694 -91 2713 -91 
Q 1731 -91 1314 353 
Q 897 797 897 1856 
L 897 4331 
z
" transform="scale(0.015625)"/>
      <path id="DejaVuSerif-4e" d="M 313 0 
L 313 331 
L 941 331 
L 941 4331 
L 313 4331 
L 313 4666 
L 1509 4666 
L 4306 984 
L 4306 4331 
L 3681 4331 
L 3681 4666 
L 5319 4666 
L 5319 4331 
L 4691 4331 
L 4691 -91 
L 4313 -91 
L 1325 3841 
L 1325 331 
L 1953 331 
L 1953 0 
L 313 0 
z
" transform="scale(0.015625)"/>
     </defs>
     <use xlink:href="#DejaVuSerif-41"/>
     <use xlink:href="#DejaVuSerif-6d" transform="translate(72.216797 0)"/>
     <use xlink:href="#DejaVuSerif-67" transform="translate(167.041016 0)"/>
     <use xlink:href="#DejaVuSerif-58" transform="translate(231.054688 0)"/>
     <use xlink:href="#DejaVuSerif-20" transform="translate(302.246094 0)"/>
     <use xlink:href="#DejaVuSerif-28" transform="translate(334.033203 0)"/>
     <use xlink:href="#DejaVuSerif-41" transform="translate(373.046875 0)"/>
     <use xlink:href="#DejaVuSerif-47" transform="translate(445.263672 0)"/>
     <use xlink:href="#DejaVuSerif-47" transform="translate(525.146484 0)"/>
     <use xlink:href="#DejaVuSerif-52" transform="translate(605.029297 0)"/>
     <use xlink:href="#DejaVuSerif-45" transform="translate(680.322266 0)"/>
     <use xlink:href="#DejaVuSerif-53" transform="translate(753.320312 0)"/>
     <use xlink:href="#DejaVuSerif-53" transform="translate(820.076172 0)"/>
     <use xlink:href="#DejaVuSerif-49" transform="translate(888.582031 0)"/>
     <use xlink:href="#DejaVuSerif-56" transform="translate(928.083984 0)"/>
     <use xlink:href="#DejaVuSerif-45" transform="translate(1000.300781 0)"/>
     <use xlink:href="#DejaVuSerif-5f" transform="translate(1073.298828 0)"/>
     <use xlink:href="#DejaVuSerif-43" transform="translate(1123.298828 0)"/>
     <use xlink:href="#DejaVuSerif-48" transform="translate(1199.8125 0)"/>
     <use xlink:href="#DejaVuSerif-45" transform="translate(1287.019531 0)"/>
     <use xlink:href="#DejaVuSerif-42" transform="translate(1360.017578 0)"/>
     <use xlink:href="#DejaVuSerif-5f" transform="translate(1433.503906 0)"/>
     <use xlink:href="#DejaVuSerif-4c" transform="translate(1483.503906 0)"/>
     <use xlink:href="#DejaVuSerif-31" transform="translate(1549.910156 0)"/>
     <use xlink:href="#DejaVuSerif-5f" transform="translate(1613.533203 0)"/>
     <use xlink:href="#DejaVuSerif-54" transform="translate(1663.533203 0)"/>
     <use xlink:href="#DejaVuSerif-52" transform="translate(1730.232422 0)"/>
     <use xlink:href="#DejaVuSerif-55" transform="translate(1805.525391 0)"/>
     <use xlink:href="#DejaVuSerif-4e" transform="translate(1889.802734 0)"/>
     <use xlink:href="#DejaVuSerif-43" transform="translate(1977.302734 0)"/>
     <use xlink:href="#DejaVuSerif-29" transform="translate(2053.816406 0)"/>
    </g>
   </g>
   <g id="line2d_115">
    <path d="M 267.81 315.905625 
L 279.81 315.905625 
L 291.81 315.905625 
" style="fill: none; stroke: #bcbd22; stroke-width: 1.2; stroke-linecap: square"/>
    <g>
     <use xlink:href="#m4b5a913544" x="279.81" y="315.905625" style="fill: #bcbd22; stroke: #bcbd22"/>
    </g>
   </g>
   <g id="text_29">
    <!-- AmgX (AGGRESSIVE_L1_TRUNC) -->
    <g transform="translate(301.41 320.105625) scale(0.12 -0.12)">
     <use xlink:href="#DejaVuSerif-41"/>
     <use xlink:href="#DejaVuSerif-6d" transform="translate(72.216797 0)"/>
     <use xlink:href="#DejaVuSerif-67" transform="translate(167.041016 0)"/>
     <use xlink:href="#DejaVuSerif-58" transform="translate(231.054688 0)"/>
     <use xlink:href="#DejaVuSerif-20" transform="translate(302.246094 0)"/>
     <use xlink:href="#DejaVuSerif-28" transform="translate(334.033203 0)"/>
     <use xlink:href="#DejaVuSerif-41" transform="translate(373.046875 0)"/>
     <use xlink:href="#DejaVuSerif-47" transform="translate(445.263672 0)"/>
     <use xlink:href="#DejaVuSerif-47" transform="translate(525.146484 0)"/>
     <use xlink:href="#DejaVuSerif-52" transform="translate(605.029297 0)"/>
     <use xlink:href="#DejaVuSerif-45" transform="translate(680.322266 0)"/>
     <use xlink:href="#DejaVuSerif-53" transform="translate(753.320312 0)"/>
     <use xlink:href="#DejaVuSerif-53" transform="translate(820.076172 0)"/>
     <use xlink:href="#DejaVuSerif-49" transform="translate(888.582031 0)"/>
     <use xlink:href="#DejaVuSerif-56" transform="translate(928.083984 0)"/>
     <use xlink:href="#DejaVuSerif-45" transform="translate(1000.300781 0)"/>
     <use xlink:href="#DejaVuSerif-5f" transform="translate(1073.298828 0)"/>
     <use xlink:href="#DejaVuSerif-4c" transform="translate(1123.298828 0)"/>
     <use xlink:href="#DejaVuSerif-31" transform="translate(1189.705078 0)"/>
     <use xlink:href="#DejaVuSerif-5f" transform="translate(1253.328125 0)"/>
     <use xlink:href="#DejaVuSerif-54" transform="translate(1303.328125 0)"/>
     <use xlink:href="#DejaVuSerif-52" transform="translate(1370.027344 0)"/>
     <use xlink:href="#DejaVuSerif-55" transform="translate(1445.320312 0)"/>
     <use xlink:href="#DejaVuSerif-4e" transform="translate(1529.597656 0)"/>
     <use xlink:href="#DejaVuSerif-43" transform="translate(1617.097656 0)"/>
     <use xlink:href="#DejaVuSerif-29" transform="translate(1693.611328 0)"/>
    </g>
   </g>
   <g id="line2d_116">
    <path d="M 267.81 333.853125 
L 279.81 333.853125 
L 291.81 333.853125 
" style="fill: none; stroke: #17becf; stroke-width: 1.2; stroke-linecap: square"/>
    <g>
     <use xlink:href="#m4a9de9259d" x="279.81" y="333.853125" style="fill: #17becf; stroke: #17becf"/>
    </g>
   </g>
   <g id="text_30">
    <!-- AmgX (L1_TRUNC) -->
    <g transform="translate(301.41 338.053125) scale(0.12 -0.12)">
     <use xlink:href="#DejaVuSerif-41"/>
     <use xlink:href="#DejaVuSerif-6d" transform="translate(72.216797 0)"/>
     <use xlink:href="#DejaVuSerif-67" transform="translate(167.041016 0)"/>
     <use xlink:href="#DejaVuSerif-58" transform="translate(231.054688 0)"/>
     <use xlink:href="#DejaVuSerif-20" transform="translate(302.246094 0)"/>
     <use xlink:href="#DejaVuSerif-28" transform="translate(334.033203 0)"/>
     <use xlink:href="#DejaVuSerif-4c" transform="translate(373.046875 0)"/>
     <use xlink:href="#DejaVuSerif-31" transform="translate(439.453125 0)"/>
     <use xlink:href="#DejaVuSerif-5f" transform="translate(503.076172 0)"/>
     <use xlink:href="#DejaVuSerif-54" transform="translate(553.076172 0)"/>
     <use xlink:href="#DejaVuSerif-52" transform="translate(619.775391 0)"/>
     <use xlink:href="#DejaVuSerif-55" transform="translate(695.068359 0)"/>
     <use xlink:href="#DejaVuSerif-4e" transform="translate(779.345703 0)"/>
     <use xlink:href="#DejaVuSerif-43" transform="translate(866.845703 0)"/>
     <use xlink:href="#DejaVuSerif-29" transform="translate(943.359375 0)"/>
    </g>
   </g>
  </g>
  <g id="legend_2">
   <g id="patch_13">
    <path d="M 602.41125 344.68125 
L 682.06875 344.68125 
Q 684.46875 344.68125 684.46875 342.28125 
L 684.46875 290.64 
Q 684.46875 288.24 682.06875 288.24 
L 602.41125 288.24 
Q 600.01125 288.24 600.01125 290.64 
L 600.01125 342.28125 
Q 600.01125 344.68125 602.41125 344.68125 
z
" style="fill: #ffffff; opacity: 0.8; stroke: #cccccc; stroke-linejoin: miter"/>
   </g>
   <g id="text_31">
    <!-- Precision -->
    <g transform="translate(614.030625 302.158125) scale(0.12 -0.12)">
     <defs>
      <path id="DejaVuSerif-50" d="M 1581 2375 
L 2406 2375 
Q 2872 2375 3115 2626 
Q 3359 2878 3359 3353 
Q 3359 3831 3115 4081 
Q 2872 4331 2406 4331 
L 1581 4331 
L 1581 2375 
z
M 353 0 
L 353 331 
L 947 331 
L 947 4331 
L 353 4331 
L 353 4666 
L 2559 4666 
Q 3259 4666 3668 4311 
Q 4078 3956 4078 3353 
Q 4078 2753 3668 2397 
Q 3259 2041 2559 2041 
L 1581 2041 
L 1581 331 
L 2303 331 
L 2303 0 
L 353 0 
z
" transform="scale(0.015625)"/>
     </defs>
     <use xlink:href="#DejaVuSerif-50"/>
     <use xlink:href="#DejaVuSerif-72" transform="translate(67.285156 0)"/>
     <use xlink:href="#DejaVuSerif-65" transform="translate(115.087891 0)"/>
     <use xlink:href="#DejaVuSerif-63" transform="translate(174.267578 0)"/>
     <use xlink:href="#DejaVuSerif-69" transform="translate(230.273438 0)"/>
     <use xlink:href="#DejaVuSerif-73" transform="translate(262.255859 0)"/>
     <use xlink:href="#DejaVuSerif-69" transform="translate(313.574219 0)"/>
     <use xlink:href="#DejaVuSerif-6f" transform="translate(345.556641 0)"/>
     <use xlink:href="#DejaVuSerif-6e" transform="translate(405.761719 0)"/>
    </g>
   </g>
   <g id="line2d_117">
    <path d="M 604.81125 315.571875 
L 616.81125 315.571875 
L 628.81125 315.571875 
" style="fill: none; stroke: #000000; stroke-width: 1.2; stroke-linecap: square"/>
   </g>
   <g id="text_32">
    <!-- mixed -->
    <g transform="translate(638.41125 319.771875) scale(0.12 -0.12)">
     <defs>
      <path id="DejaVuSerif-78" d="M 1863 2028 
L 2559 2988 
L 2113 2988 
L 2113 3322 
L 3391 3322 
L 3391 2988 
L 2950 2988 
L 2059 1759 
L 3097 331 
L 3531 331 
L 3531 0 
L 1997 0 
L 1997 331 
L 2419 331 
L 1697 1325 
L 972 331 
L 1403 331 
L 1403 0 
L 141 0 
L 141 331 
L 581 331 
L 1497 1594 
L 488 2988 
L 78 2988 
L 78 3322 
L 1563 3322 
L 1563 2988 
L 1166 2988 
L 1863 2028 
z
" transform="scale(0.015625)"/>
     </defs>
     <use xlink:href="#DejaVuSerif-6d"/>
     <use xlink:href="#DejaVuSerif-69" transform="translate(94.824219 0)"/>
     <use xlink:href="#DejaVuSerif-78" transform="translate(126.806641 0)"/>
     <use xlink:href="#DejaVuSerif-65" transform="translate(183.203125 0)"/>
     <use xlink:href="#DejaVuSerif-64" transform="translate(242.382812 0)"/>
    </g>
   </g>
   <g id="line2d_118">
    <path d="M 604.81125 333.185625 
L 616.81125 333.185625 
L 628.81125 333.185625 
" style="fill: none; stroke-dasharray: 4.44,1.92; stroke-dashoffset: 0; stroke: #000000; stroke-width: 1.2"/>
   </g>
   <g id="text_33">
    <!-- double -->
    <g transform="translate(638.41125 337.385625) scale(0.12 -0.12)">
     <defs>
      <path id="DejaVuSerif-75" d="M 2266 3322 
L 3341 3322 
L 3341 331 
L 3884 331 
L 3884 0 
L 2766 0 
L 2766 588 
Q 2606 256 2353 82 
Q 2100 -91 1766 -91 
Q 1213 -91 952 223 
Q 691 538 691 1209 
L 691 2988 
L 172 2988 
L 172 3322 
L 1269 3322 
L 1269 1388 
Q 1269 781 1417 556 
Q 1566 331 1947 331 
Q 2347 331 2556 625 
Q 2766 919 2766 1478 
L 2766 2988 
L 2266 2988 
L 2266 3322 
z
" transform="scale(0.015625)"/>
     </defs>
     <use xlink:href="#DejaVuSerif-64"/>
     <use xlink:href="#DejaVuSerif-6f" transform="translate(64.013672 0)"/>
     <use xlink:href="#DejaVuSerif-75" transform="translate(124.21875 0)"/>
     <use xlink:href="#DejaVuSerif-62" transform="translate(188.623047 0)"/>
     <use xlink:href="#DejaVuSerif-6c" transform="translate(252.636719 0)"/>
     <use xlink:href="#DejaVuSerif-65" transform="translate(284.619141 0)"/>
    </g>
   </g>
  </g>
 </g>
 <defs>
  <clipPath id="p1440264adc">
   <rect x="50.93375" y="23.837812" width="296.82625" height="211.044062"/>
  </clipPath>
  <clipPath id="p0661841d75">
   <rect x="404.45375" y="23.837812" width="296.82625" height="211.044062"/>
  </clipPath>
 </defs>
</svg>
